/* XPM */
static char *_05fe2944b644650958689b280589fb4QCcjWW4zGZo4VsgB[] = {
/* columns rows colors chars-per-pixel */
"71 71 238 2 ",
"   c None",
".  c #0E020A",
"X  c #0D0904",
"o  c #140303",
"O  c #140B05",
"+  c #1C0B06",
"@  c #140A09",
"#  c #1C0C0C",
"$  c #170509",
"%  c #1D1402",
"&  c #1D140A",
"*  c #1A1907",
"=  c #1D0615",
"-  c #1C0D13",
";  c #1C0C1B",
":  c #160718",
">  c #1D1212",
",  c #1C1A13",
"<  c #1A131B",
"1  c #0F0F18",
"2  c #230D03",
"3  c #230D0B",
"4  c #290A0A",
"5  c #24140C",
"6  c #2A1C0E",
"7  c #271506",
"8  c #220C15",
"9  c #280A1B",
"0  c #250917",
"q  c #231313",
"w  c #241A14",
"e  c #2B1B14",
"r  c #24141B",
"t  c #251C1B",
"y  c #2A1E1C",
"u  c #2C1617",
"i  c #331E19",
"p  c #1B220E",
"a  c #182C10",
"s  c #22230B",
"d  c #352B0B",
"f  c #242315",
"g  c #24221D",
"h  c #2B2519",
"j  c #33261A",
"k  c #2E3B17",
"l  c #39351B",
"z  c #2D3907",
"x  c #1F0C21",
"c  c #1A1724",
"v  c #291A23",
"b  c #1B292A",
"n  c #1C2835",
"m  c #242427",
"M  c #322523",
"N  c #382D25",
"B  c #3D342E",
"V  c #2A2338",
"C  c #25342B",
"Z  c #442534",
"A  c #1C491E",
"S  c #384419",
"D  c #36480A",
"F  c #2A651D",
"G  c #245435",
"H  c #196928",
"J  c #1A6739",
"K  c #226427",
"L  c #307A2D",
"P  c #455816",
"I  c #4B5216",
"U  c #456616",
"Y  c #526417",
"T  c #4C7616",
"R  c #5C731C",
"E  c #587318",
"W  c #657115",
"Q  c #49423C",
"!  c #535B28",
"~  c #5C7425",
"^  c #596B2B",
"/  c #677D32",
"(  c #142E46",
")  c #183748",
"_  c #183C56",
"`  c #233448",
"'  c #223F61",
"]  c #4A3D51",
"[  c #174357",
"{  c #0D4043",
"}  c #334E54",
"|  c #1A4764",
" . c #17587A",
".. c #165676",
"X. c #554C4E",
"o. c #5D5D54",
"O. c #5F575B",
"+. c #57594A",
"@. c #645B53",
"#. c #625D5D",
"$. c #66595B",
"%. c #546754",
"&. c #575F61",
"*. c #655F66",
"=. c #686965",
"-. c #776C6B",
";. c #747571",
":. c #19802F",
">. c #238027",
",. c #79AC1F",
"<. c #738C14",
"1. c #135E84",
"2. c #166894",
"3. c #0D6C92",
"4. c #077BBC",
"5. c #1077A2",
"6. c #008EBC",
"7. c #028CCB",
"8. c #0C88C7",
"9. c #029CDE",
"0. c #0798DA",
"q. c #0790D0",
"w. c #05A1DC",
"e. c #1FA8DE",
"r. c #048EE8",
"t. c #0495E4",
"y. c #029CE4",
"u. c #0B9DE5",
"i. c #0295EB",
"p. c #0995EC",
"a. c #039DEB",
"s. c #0A9CEB",
"d. c #0B95E5",
"f. c #169CE9",
"g. c #029CF2",
"h. c #089CF8",
"j. c #129AF0",
"k. c #02A2E5",
"l. c #0CA3E4",
"z. c #02A2EB",
"x. c #0AA2EB",
"c. c #03A9E8",
"v. c #14A9E9",
"b. c #02A3F3",
"n. c #00AAF2",
"m. c #03A5FB",
"M. c #01AAFD",
"N. c #09ACFA",
"B. c #0AA7F3",
"V. c #0DAFF5",
"C. c #25ABE7",
"Z. c #29B2EA",
"A. c #37B5E7",
"S. c #23A9F2",
"D. c #2AB1F3",
"F. c #37B8F4",
"G. c #36A6E5",
"H. c #79BDD4",
"J. c #44B9ED",
"K. c #47B9F3",
"L. c #56BBF6",
"P. c #5DBAE5",
"I. c #30C0F2",
"U. c #75C8DA",
"Y. c #57C3E9",
"T. c #5CC1F4",
"R. c #64C6EB",
"E. c #7CCCEB",
"W. c #68C9F5",
"Q. c #74CCFD",
"!. c #79CBF5",
"~. c #72D2F7",
"^. c #968B8B",
"/. c #959391",
"(. c #A59E8C",
"). c #9DA190",
"_. c #AF9FAA",
"`. c #BBB6B6",
"'. c #BFB8C0",
"]. c #98D9ED",
"[. c #82CEF6",
"{. c #89D4F6",
"}. c #9DDCF9",
"|. c #99D9F4",
" X c #8FCBEB",
".X c #A5DAEB",
"XX c #A5D6ED",
"oX c #B3DCEE",
"OX c #B8D9EA",
"+X c #A3DDF4",
"@X c #ABDCF5",
"#X c #A4D6F9",
"$X c #ABD6FC",
"%X c #A5DDFA",
"&X c #ABDDFA",
"*X c #A6D6F4",
"=X c #B3DBF4",
"-X c #B2DDFE",
";X c #BBDCFB",
":X c #9EE4FE",
">X c #ACE1EE",
",X c #AEE3F5",
"<X c #A5E1FC",
"1X c #ACE4FB",
"2X c #B2E3F5",
"3X c #B2E3FA",
"4X c #BDE5FD",
"5X c #B8E4F7",
"6X c #B0E0EC",
"7X c #D3CBC7",
"8X c #D7D8D9",
"9X c #CFCED0",
"0X c #C4DEF8",
"qX c #D2D6E0",
"wX c #E2DAE3",
"eX c #C3E6F4",
"rX c #C9E8FA",
"tX c #DBECFB",
"yX c #D7EBF7",
"uX c #D3F2FE",
"iX c #DDF3FD",
"pX c #D9F7FB",
"aX c #CBEBF3",
"sX c #E6E5E8",
"dX c #EAFAEB",
"fX c #FBF8ED",
"gX c #E8EEF7",
"hX c #ECF5FB",
"jX c #EFFCFB",
"kX c #E6F7FB",
"lX c #F4FDF4",
"zX c #FCFCF5",
"xX c #F5F4FD",
"cX c #FCF7FE",
"vX c #F5FDFC",
"bX c #FDFDFD",
"nX c #F9F7F4",
"mX c #F8EEF1",
/* pixels */
"                                                                                                                                              ",
"                                                                                                                                              ",
"                                                                                                                                              ",
"                                                                                                                                              ",
"                                                                                                                                              ",
"                                                                                                                                              ",
"                                                                                                                                              ",
"                                                                                                                                              ",
"                                                                                                                                              ",
"                                                                                                                                              ",
"                                                                                                                                              ",
"                                                                                                                                              ",
"                                                                                                                                              ",
"                                                                                                                                              ",
"                                                        T F H K J ^ W E ~ E T E W E R ~ R U K K K F                                           ",
"                                        . 8 # ; 8 - - - 0 9 9 8 5 8 - - x = 3 9 8 : > - # > ; 8 q < : @                                       ",
"                                        r e y f e , M t v e t t t t y t t y t t g y h t t p u & r 6 v r                                       ",
"                                      a $ O @ # 7 3 3 & @ # @ @ @ @ @ @ @ @ @ @ + @ + + 3 & 4 7 q % + # d                                     ",
"                                  :.>.%.O.o.@.} _ | ) } @.o.@.=.#.#.#.#.#.#.#.#.o.&.=.*.} [ _ _ | [ | _ {                                     ",
"                              f 0 e + 9XbXbXbXQ.m.V.k.W.zXbXbXzXbXbXbXbXbXbXbXbXzXbXbXbX~.h.n.M.n.b.b.M.7.q ; = ,                             ",
"                              j r w 9 9XlXdXfXQ.p.u.y.T.cXbXcXzXbXbXbXbXbXbXbXbXbXcXcXnXR.t.k.y.a.u.y.b.6.3 t v M                             ",
"                              s > * - 9XvXzXbXW.i.b.t.R.bXfXnXvXbXbXbXbXbXbXbXbXzXnXbXbXW.b.c.a.b.k.c.h.8.w * w 5                             ",
"                              Q N B M qXbXmXjXE.S.C.e.W.iXhXiXdXbXbXbXbXbXbXbXbXkXgXtXiXW.r.z.z.a.k.y.b.8.V m m C                             ",
"                          & N sXlXbXcX2X+X1X+XpXlXhXbX].a.h.f.Z.bXbXbXbXbXbXbXbXJ.u.b.l.b.h.k.y.z.x.b.b.b.9.t.a.0.b t g q                     ",
"                      < w , j mXbXcXzX4XXX-X#XtXvXzXcX+Xa.z.g.D.bXbXbXbXbXbXbXbXF.9.z.b.z.y.z.z.z.k.s.x.a.b.k.b.y.r 5 & v                     ",
"                      < t , M gXbXbXlX4X@X@X+XiXbXvXbX}.y.y.y.A.bXbXbXbXbXbXbXbXF.9.z.z.x.k.z.z.g.z.y.k.z.a.y.z.y.V q w q                     ",
"                      q 6 5 M gXzXzXvX4X&X@XXXtXbXbXbX|.l.z.k.C.bXbXbXbXbXvXbXzXD.u.z.a.y.y.x.y.s.x.z.z.y.y.z.x.9.b , u >                     ",
"              h k d +.wXwXwXsX;X-X0X=X@X%X&X%XuXbXcXzXxXrXkXtXeXZ.C.C.Z.S.S.D.C.x.y.z.b.a.a.b.z.w.y.m.z.9.z.b.a.a.7.8.7.q.G d l h             ",
"              # w o X.zXzXbXvX,X+X@X&X,X#X&X#XtXzXvXzXbXzXbXbXuXg.a.a.a.a.b.a.a.a.y.z.z.z.z.z.z.n.k.g.z.k.a.a.a.a.b.b.b.M.( q r :             ",
"              - y # X.nXfXxXxX2X>X+X&X&X*X@X}.iXbXbXfXzXzXvXbXyXy.x.k.k.k.k.k.l.z.x.x.z.k.a.z.z.h.x.y.z.z.y.k.z.a.x.k.y.b.) 7 w -             ",
"            H 3 c . Q bXbXbXbX&X#X}..X<X4XOX@XpXbXbXvXbXbXvXvXuXa.b.a.a.p.p.i.p.a.s.t.y.y.t.s.a.f.y.0.z.b.l.z.z.z.n.h.m.N.( $ , :             ",
"              L       $.@.o.-.yXhXhXhXY.D.F.G.{.rXrXrXeX0X5XeX,X!.!.!.[.<X1X,X3X1X3X2X2X2X2X@X1XT.a.x.b.z.u.g.x.y.| [ [ {                     ",
"                      X @ # q gXbXbXzXA.g.g.d.Y.&X*X}.%X#X&X.X-X3X2X=X3XbXbXbXbXbXvXbXvXbXzXbXvX:Xt.b.y.b.w.a.x.9., 2 u =                     ",
"                      h m & N sXbXnXbXA.9.B.b.R.3X@X%X<X=XoX&X%X@X@X@X@XcXbXbXvXcXbXbXvXbXvXxXvX].y.s.b.z.y.z.s.i.b p t c                     ",
"                      0 0 : m zXbXxXbXZ.r.p.i.W.rX5XoX3X|.@X$X&X&X&X&X&XbXbXbXbXzXbXjXzXbXbXbXbX%Xg.c.y.z.N.m.m.z.c # - =                     ",
"                          Y Y ^./.^.^.U.[.!. XY.R.L.T.!.1X=X.X>X&X&X&X&XbXbXbXbXbXzXvXbX2X!.E.{.P.y.y.c.0. .1.1.1.! Y Y                       ",
"                              * X = X 7XvXbXbXQ.0.i.a.A.3X$X+X<X&X@X&X@XcXbXbXbXbXzXvXbXR.t.9.9.b.y.a.b.4.2 & 2 %                             ",
"                              M , M > 7XlXfXvXY.h.V.d.J.5X}.$X$X@X@X@X@XcXbXbXbXbXvXvXbXW.h.b.b.y.y.k.z.7.t w t f                             ",
"                              v 8 8 = 8XvXbXcXQ.t.9.d.A.0X6X3XoX@X@X@X@XcXbXbXbXbXbXbXbXW.a.y.a.B.M.z.N.7.8 % 4 c                             ",
"                                I S D (.`.`.'.H.L.J.K.Y.Q.E.Q.E.@X@X&X,XbXbXbXbXrX%X3X3XK.a.k.x.q.5.5.4.5.S A C k                             ",
"                                      z o % . ).vXbXcX+Xi.z.y.v.&X@X=X<XbXbXbXbXA.a.9.y.s.z.g.M.3.4 & 2 d                                     ",
"                                      S r v @ /.bXcXcX+Xa.9.j.S.&X+X#X&XlXvXbXvXJ.a.0.z.z.y.x.m.2.2 t w l                                     ",
"                                      l ; w o _.bXbXvX}.a.z.i.v.1X=XoX5XcXbXbXzXJ.g.x.s.b.c.k.N.5.2 r : l                                     ",
"                                        f h * ^.sX8XsX XC.v.S.I.].].|.].uXiXpXiXF.y.k.z.y.q.7.9.2.d l s S                                     ",
"                                              Y r j & ;.vXlXbXaXz.b.b.a.x.l.y.z.b.z.9.N. .# g x P                                             ",
"                                              U 0 u o -.bXnXbXaXy.y.a.k.z.c.z.c.a.y.y.m.| 2 t ; P                                             ",
"                                                ; g X ;.bXbXcXyXk.x.b.z.s.9.a.a.k.j.g.b...7 w 1 P                                             ",
"                                                - v + -.bXdXvXtXa.k.s.x.a.c.a.k.k.z.k.z...4 w 3 P                                             ",
"                                                      / B Q Z %.uXpXiXrXv.z.a.b.[ b n n ^ ,.                                                  ",
"                                                        . > $ Q bXbXbXxXv.a.z.b.` 3 r # W                                                     ",
"                                                        > j 5 Q vXjXlXcXl.t.l.z.` 7 i 3 R                                                     ",
"                                                          - . ] bXbXfXvXv.M.b.n.( @ < .                                                       ",
"                                                                O.%.$.*.[ [ ' _ ~ <.                                                          ",
"                                                                  O # @ 4 2 4 +                                                               ",
"                                                                  y 6 h w g w 6                                                               ",
"                                                                        > 8 ; :                                                               ",
"                                                                                                                                              ",
"                                                                                                                                              ",
"                                                                                                                                              ",
"                                                                                                                                              ",
"                                                                                                                                              ",
"                                                                                                                                              ",
"                                                                                                                                              ",
"                                                                                                                                              ",
"                                                                                                                                              ",
"                                                                                                                                              ",
"                                                                                                                                              ",
"                                                                                                                                              ",
"                                                                                                                                              ",
"                                                                                                                                              ",
"                                                                                                                                              "
};
