/* XPM */
static char *xpm_[] = {
/* columns rows colors chars-per-pixel */
"32 32 181 2 ",
"   c #A5CD47",
".  c #A5CD47",
"X  c #060807",
"o  c #03050A",
"O  c #0A050D",
"+  c #030C0E",
"@  c #0A0B0A",
"#  c #100408",
"$  c #130D0E",
"%  c #1B140C",
"&  c #12110D",
"*  c #000C16",
"=  c #000E19",
"-  c #130F10",
";  c #0D1314",
":  c #081416",
">  c #141314",
",  c #161814",
"<  c #141B1D",
"1  c #1A1A1C",
"2  c #141519",
"3  c #211E1E",
"4  c #16201E",
"5  c #001728",
"6  c #021C29",
"7  c #0D1B2B",
"8  c #041523",
"9  c #101727",
"0  c #05232E",
"q  c #092026",
"w  c #152126",
"e  c #1B262C",
"r  c #00283F",
"t  c #042338",
"y  c #162635",
"u  c #0F3133",
"i  c #19363E",
"p  c #252324",
"a  c #262627",
"s  c #2D322E",
"d  c #273838",
"f  c #353534",
"g  c #3A3B35",
"h  c #40392F",
"j  c #413C33",
"k  c #002F47",
"l  c #002B49",
"z  c #0C2D40",
"x  c #003644",
"c  c #1B3544",
"v  c #003353",
"b  c #1B5875",
"n  c #2B536D",
"m  c #2F5972",
"M  c #325D73",
"N  c #286079",
"B  c #464646",
"V  c #585C5B",
"C  c #615B5B",
"Z  c #5A5E61",
"A  c #56696F",
"S  c #62696A",
"D  c #636564",
"F  c #70787A",
"G  c #295E80",
"H  c #19729E",
"J  c #276888",
"K  c #236683",
"L  c #356C87",
"P  c #336D93",
"I  c #1C77A5",
"U  c #2A7EAB",
"Y  c #237BA3",
"T  c #327BA6",
"R  c #597E8E",
"E  c #407C98",
"W  c #1781A8",
"Q  c #3880A8",
"!  c #3E8FAC",
"~  c #2983B2",
"^  c #278DBA",
"/  c #3493BB",
"(  c #3991BF",
")  c #4C8A9C",
"_  c #6A8C93",
"`  c #4090AB",
"'  c #448DB6",
"]  c #4598BD",
"[  c #569AB2",
"{  c #609AB0",
"}  c #71AABD",
"|  c #1D8FCD",
" . c #1C96C9",
".. c #0E9AD9",
"X. c #1797DE",
"o. c #139CDC",
"O. c #1B98D4",
"+. c #368DC2",
"@. c #2C93C4",
"#. c #2395CC",
"$. c #2F98CF",
"%. c #2394C8",
"&. c #389ECF",
"*. c #3798C5",
"=. c #2097D1",
"-. c #1FA2D8",
";. c #36A0D0",
":. c #0B9DE3",
">. c #069FE8",
",. c #129AE3",
"<. c #0BA1EE",
"1. c #12A2E1",
"2. c #439CC3",
"3. c #4B9BC0",
"4. c #49A0CB",
"5. c #41A5D6",
"6. c #63A6C0",
"7. c #6FB9D2",
"8. c #69B5D5",
"9. c #76B9D6",
"0. c #4FB6E1",
"q. c #62BAE0",
"w. c #6DC3DE",
"e. c #7BC2D8",
"r. c #78C6E3",
"t. c #A69F9A",
"y. c #A1A09B",
"u. c #889BA3",
"i. c #9E9EA0",
"p. c #88A2AA",
"a. c #9AA6A7",
"s. c #9CB3BC",
"d. c #B6BCBC",
"f. c #88BBCC",
"g. c #82BCD4",
"h. c #87C9DF",
"j. c #84C3D4",
"k. c #96C9D7",
"l. c #A8C9CE",
"z. c #A1C6D8",
"x. c #BCD6DD",
"c. c #86D7F4",
"v. c #99DAF7",
"b. c #A3D6E7",
"n. c #B2DBED",
"m. c #B7DCE5",
"M. c #AADBF4",
"N. c #A4DAF9",
"B. c #A7DDF9",
"V. c #B1DCF3",
"C. c #89EDFF",
"Z. c #9FE6FF",
"A. c #90EDFF",
"S. c #9BECFF",
"D. c #BAE6EF",
"F. c #A0EAFF",
"G. c #A5E3F7",
"H. c #B6EDFD",
"J. c #BEF4FF",
"K. c #BAFEFF",
"L. c #B2F7FF",
"P. c #C0D0D0",
"I. c #D5DADC",
"U. c #CCDEE5",
"Y. c #C5E3E6",
"T. c #DFE9EB",
"R. c #C8EEF7",
"E. c #C5EFFF",
"W. c #C6E6F3",
"Q. c #C3F8FF",
"!. c #CEFFFF",
"~. c #C6F4FE",
"^. c #D3FEFF",
"/. c #DBFFFF",
"(. c #D3F0F6",
"). c #E0F6FF",
"_. c #E9F7F8",
"`. c #E5FEFF",
"'. c #ECFEFE",
"]. c #FAFBF8",
"[. c #F3F4F6",
/* pixels */
"                                                                ",
"                                                                ",
"                                o                               ",
"                                            X                   ",
"                          X                                     ",
"                          X .       . .   X o                   ",
"                  . O o 2 s f j j h j g g s <                   ",
"        o   o O - 2 9 7 w < 2 % % % , 4 q 0 6 =   X   o o       ",
"        X   . p C a.R M _ u.i.t.y.y.a.p.L G K n = *     o       ",
"          X - 3 D _.z.) b./.'.].].'.^.L.+.*.+.T r 0 o o o       ",
"          o B d.P.x.H.b.h.} Y.'.'./.7.0.O.,.o.| Y b 6 : o       ",
"    X     2 V _.(.m.R.^.j.) b.^.^.K.*.O.:.<.<...| H t 5 o       ",
"      - B I.I.U.D.n.W.`.~.H.9.3.4.5.=.O.....<.:.o.#.T M e O     ",
"    X 1 f [.T.x.M.M.E././.^.9.' ( / @.@. .-.1.:.,.=.' m 8 o     ",
"    X ,   f S ).b.[ 9.G.n.V.N.v.H.J.J.J.L.C.=.o.=.I v 5 o       ",
"        . 2 Z U.z.{ 7.v.M.M.B.M./.`.`./.K.A.%.#.~ J z =         ",
"          o > a A !.e.! r.F.N.n.'.'.`.J.2.;.%.Y l 6 : o +       ",
"      X X . $ p D Y.k.[ w.c.N.n.`.'.Q.F.;.$.U E i w X           ",
"            o . 4 ; _ J.e.! r.G.^.^.] / @.U l t X .     o o o   ",
"                & & F l.f.6.r.c.F.S.*.%.U P 0 e @ .             ",
"              O o X p 4 i./.8.@.@.#. .^ x y o o O               ",
"              o     X & F f.g.8.#.=.W J c 1 o X     o           ",
"                        & ; s.!.2./ x u w o                     ",
"                      . . . A u.L N d @ X X                     ",
"                          X @ > 7 : X # @ X                     ",
"                              o O O # . .                       ",
"                                o . # .                         ",
"                                  .                             ",
"                                    o                           ",
"                                                                ",
"                                                                ",
"                                                                "
};
