/* XPM */
static char *f26f79c53edd41cda82a17d9cc70d499QViLjapNMt4SHPHq[] = {
/* columns rows colors chars-per-pixel */
"80 80 57 1 ",
"  c #647645",
". c #939250",
"X c #426848",
"o c #A8AB5C",
"O c #423734",
"+ c #244940",
"@ c #7A6251",
"# c #5B4B41",
"$ c #A38762",
"% c #897762",
"& c #B7AA89",
"* c #CFC7B2",
"= c #B2A381",
"- c #9F6466",
"; c #E0E0D0",
": c #705F4C",
"> c #96866A",
", c #C1887A",
"< c #DFAC8A",
"1 c #F5C9A0",
"2 c #F8E7BB",
"3 c #544B46",
"4 c #766A64",
"5 c #968477",
"6 c #3D3331",
"7 c #B7A493",
"8 c #292129",
"9 c #382F2C",
"0 c #DBC7B6",
"q c #39241D",
"w c #5D424D",
"e c #392923",
"r c #785442",
"t c #38291C",
"y c #362D28",
"u c #392F2C",
"i c #593C31",
"p c #473C32",
"a c #544841",
"s c #6E5D4F",
"d c #986746",
"f c #322114",
"g c #867667",
"h c #3B2F24",
"j c #4D3629",
"k c #A97F59",
"l c #573C2A",
"z c #362920",
"x c #3D3227",
"c c #534032",
"v c #372A26",
"b c #453B2E",
"n c #5F4E3D",
"m c #6B5C48",
"M c #5B4637",
"N c #3E403E",
"B c white",
/* pixels */
"  ..         .                       X                         X     X          ",
"..X.o  o.    ..             .         o.   .  o              ..o      o.   .  o ",
".oXX  o.   .. .     .oo    o.. .  .  o.. ..o ..o              oo  .  o.. ..o ..o",
"XoX    Xo.  .       ..X  XXoo .o .o XoOXXXooXX o o         .o  X .o XoOXXXooXX o",
"  .    oo. .       ooX oooXoX+oXXoooXOO@O+X++OXXo.. o..    ..oXXXoooXOO@O+X++OXX",
" .. .. o Xo. .   ...oo..o XX+##@+X oOO@$OO++OOOXo  Xoo ...o +o+O+X oOO@$OO++OOOX",
" .  .     ooX..XX.oXX .. ooo%%O$@OO@$@OOO$+O@@OO++XXoX  .ooXOO@O@OO@$@OOO$+O@@OO",
"          oX  .  Xo     ..o@%#$#OO@O@$@$O@@$&&$@O+X++XXXXXoXO@O@OO@O@$@$O@@$&&$@",
"  ..X  .                   @@O@O@$@@$@O@@$***&$@@+++OOOOOO@@$O=$@$@@$@O@@$***&$@",
"  X.. ..              . .o #@@#$$$$*$$@-;****&@&@$@O@O$@O@;*$O$@$$$*$$@-;****&@&",
"oooX  . ..  .oo X .  .. ..o@#OO@$*;$**$-*;;;*-&**$$@OO@O@$*$@O@$$*;$**$-*;;;*-&*",
"Xo..    .   ..X  Xo. oo X+o##@$$*$$*;;&:&***&:;***$$@@O$$$@@O@$**$$*;;&:&***&:;*",
" Xo.       ooX   X   XoX+@%O$$$*;;;;;*&:>&&&&:*;;***$$O***&@&&**;;;;;*&:>&&&&:*;",
" o.. .   ...oo   o  XXX++#O@$$*;;*****&-:>>>:-&*;;;;*&-&;;*-*;;;;*****&-:>>>:-&*",
"   X..X X.oXX   o.XX.o++#O#$&&&&***&&&>--:::-->&*****>->&&&-&;;****&&&>--:::-->&",
"    .    Xo     . X.oO X#O#@$$>>&&&>>:-,,,,,--->&&&&>,,,,>>-&&&&&&&>>:-,,,,,--->",
"               X .o   XOOOO#@>>>---,,,<<11<<-,,----,,<<<<,---,,,---,,,<<11<<-,,-",
"             ..o.oooXX@@O#@$**&><-<112221<,,3<11<<<1111<<<,-<111<-<112221<,,-<11",
"              oo  Xo@O=$@O#@*;*>,-,,<<11<,--3-,,,,,,<111222,<<,,,-,,<<11<,----,,",
" o         .o  XXX@OO@@@$@$**;*:1111<<,--333,111<<11,,,<<11,,,<11111<<,-----,111",
"o.. o..    ..oXXO@$O@@$&*$**;;>:<11<,-344553,11<<<<<1111,-,22211<11<,-344553,11<",
"o  Xoo ...o +o+O@OO@$***&**;;&:3,---345554336-----,<<<11-1111<<<,---345554433-,,",
"++XXoX  .ooXOO@O@$*******;;;&:34337775443336886344333-<<-<<,--333377754333344577",
"O+X++XXXXXoXO@O@$&&*;;;;;;*&:345535544333698886334777533333357755355445537777755",
"@+++OOOOOO@@$O=$@$>&&****&&>-455493339998888888633555770030007544334555537755544",
"@$@O@O$@O@;*$O$@@@$>>&&&>::-4544489988888888888863444577740075444555443363333355",
"*$$@OO@O@$*$@O@$$$@::::::--4399998888888888888888899345554555433334433-OOO-O4433",
"**$$@@O$$$@@O@$****&>>345533988888888888888888qqq8889333444433,<1<---OO@O@@$O221",
";***$$O***&@&&**;;;*&>-ww399889988888888888888888qq8889993334-1111<@@$@@O$O@O122",
";;;;*&-&;;*-*;;;;;**>:-,w88899888888888888888888888q8888eer,<-11<<11<@O$@O@$@-11",
"*****>->&&&-&;;**&&>:-,-w889888888888888888888888888888qr-,<1,<<,<<11111111<@-,,",
"&&&&>,,,,>>-&&&&>>::,<--,8w888888888888888888888tyyyy8urir,,-,,,,,,<122222<@-,-,",
"---,,<<<<,---,,,---,11<-w-8888888888888888888888qpasaa8irdrr,,,----,,<<<<,---,,,",
"<<<1111<<<,-<11111<<,-ww,9938888888888888888888t8qypssauird,<<11<<<1111<<<,-<111",
",,,,<111222,<<,,,,,--,,,993888888888888888t88888888yuasauird--,,,,,,<11122221<,,",
"<<11,,,<<11,,,<11<<<,-w34398888888888888888t88fftttq8uaga3-r,111<-<,,,,<111<<,<<",
"<<<<1111,-,22211<,,-ww5499888888888888888888thtffjjjq8usg343,11<<-111<<,,,<1221<",
"44,<<<11-1111<<<444559439-8888888888888888888fff8q8qjr8aa975----3-,,<11122221<<<",
"55543-<<-<<,--3355544939-88888888888888888888888y8q8qidiu95055444333-,<<<,--3333",
"57777533333357755544399,9888888888888888888888yppy88eirdi9450077544443999w450075",
"45555770030007544333--,,w9888888888888888f88888yypy88eirdr34577545774399www50755",
"44444577740075443--,-<,ww,988888888888888f88888888pyu8irdkr345444455439w---w4444",
"3334445554555433-,<<-<-w-,988888888888888qf888888888ya8irdkdr33333333--,,,,-3333",
"11<1<,44444433,<<11<w-w-,-398888888888888qqf888qq8888ua8irdkk<<<111,2211<<<<,,<1",
"111<111<<,-34-111<,-ww<,-w3388888888888888qqf88jjq8888ueerdkk<22111,222222122211",
"<<<,,,----,<<-11<-ww,<,-w933888888888888888qqqq8qlq8uu8ererdd,21<,,,,,---,,,<<<<",
",,,-111<<<<11,<<--,,,-ww,943888888888888888888888qluauueiriii-,<<<<<111<<<<---,,",
",,,-<<12221<,,,,-wwwww,<934388888888888888f8888qqjqusau,--,,-,-,,,<<<<12221<,,,,",
"-,<11,<<,1<<-,,----,11<-943988888888888888f888888qj8sau-,<--,,,---,,,,<<11<<-,,-",
"<1111-221<,,3<11<1<<,--9399388888888888888fq88tt8qq8usuu-,w1,,<<<<<,---,<<<,-<11",
",,,---11<,,-3-,,,,,--,,,9938888888888888888qqf8jq88e8aua3-w<11,,,--------------,",
"1122<-,,-333,1111<<<,-w34398888888888888z888qqqjljji8uugaw-,,<111111<1111<<<1111",
"<112<,,-4449,11<<,,-ww5499888888888z88zxz888888fjljji8usw,,--,<<<11<<111<<<,,,,<",
",,,,-4445539----444555439-8zz8888zxxxxxz8z8888fffq8irreaw<11,---,,,,-----------,",
"444445577595554455544439-8888zzxxzzz8888xx88888888qei,r8w,<<11,,----,<111<<<-<11",
"57700007749400775544399,98z888888888xx8xxz888888z88ier,rw-,,<<<<<-1111<<<<,,-1<<",
"55777005499407754333--,,ww8xxzzzzxxzzzxxz8888zzzzxzxei,<-w-,,,,,,-1<<<,-----w-,,",
"44444433699355443--,,<,ww,98zxxzzz88888888xzzcxxxcxxwed,w-w--,,,,w,,,---owwww-<<",
"---,,<,-99993333-,<<<<-w-,98x888888ee88zxxzzxxcxzxzxzw-dwO-ww----Oww--wooOOwO---",
"1111<<,-9ww-w<<<<11<<-w-,-3989xxeexxzzzxccxzxczxxzzziiw-#Ow--wwwwO$@Ow o. @O@Oww",
"11<<<,-ww-,,w<221<,-ww,,-ww398v888zxbcncxzxncxzxzizix-#w%@#www--O$@oo.X.   .o O@",
"<,,--ww-,<<<w,21<-ww,w,-ww93998izzccnncnccnmncxzix#w##@-@@%Ooo 9O@O+oo.   .o O@$",
"<<<11122221<w-,<--,,-www,w439w8Mcn##@@n#@%%ncncci#@@%##@@%%oo.. X XX+.     ..ooX",
",,<<<11111<w-,-,-wwwww,<-w439-99n#@@###@@@%%@%@%#@%%@@@@@@@OX.     +        o.X ",
"---,,<<<<,---,,,---,11<-w,-w9-w9%#@@##@@##@@@@@@%%%@#OOO. .. X.. .           o  ",
"<<<1111<<<,-<111<1<<,--,,394w--9@%%@$%@@#@@@%@%@@%@#O@#o..    X  ..    .    o.  ",
",,,,<111222,<<,,,,,--,,-w934w,-9%%%%%ooo@%%%%%@##@#$%#ooo .. ..     ..X..   .X..",
"<<11,,,<<11,,,<111<<,-w9334w-,wN@%%%@#ooo#@%%%%@#@#=$@O++oo.XX       .. .     .X",
"<<<<1111,-,22211<,,,-w-,94w-,-9#@%ooo. o. oo%@@@=$@##@%OO+XXo       X.     ..   ",
",,,<<<11-1111<<<,,-ww-,-9w-,-w9@@@#o.. ..o.X  oo$%%@Oooo+XXo.+X   oo.     ..X   ",
"<<<,-----<<,----,,<<,,-ww---w9O#o X ..  ..X+ o.#o#@#OOo.o. .. +X   ..      X    ",
"<122221<,,--111<<<,,-ww---wwoO#@.o X         .  .o  oo o..   o X   Xo.     ..   ",
",<<11111222-11<<,---,,-9www9.o.  .          o   .. o.+Xo     oo  . o.X      XX  ",
",,,<<<<<<11-<<,,,,,,-w9+99o9 .          o  o.      .. X  oooX.. .o      o       ",
"---,,,,<<<,w-,,--9www99X+ooXX     ooo Xo.  .X..           o.. . o..     .oX ooo ",
"ww---------Ow-wwwwwww9X X.o oo     o.. .X..  .X    ..     X.    .     ..X. ..o  ",
"OO@OXOwwwwOOwOO@wo999oo.   ooX     X.    .X    . ..X.o     X .    o   X.    .X  ",
"ooOXo@OO@$$@Oo@$9oo+XX..   .o X  ...   .      ..X.oXX    oo. ..   .o         ...",
".o.o.$@.O@@O+.oX+o..X            X.. ..       .  XoX      ..  . .o . o.      ..X",
" . .X+. +O+X .. X.                X  . .                   X     .   .        X "
};
