/* XPM */
static char *xpm_[] = {
/* columns rows colors chars-per-pixel */
"32 32 230 2 ",
"   c #1E1413",
".  c #321C0A",
"X  c #23161A",
"o  c #241A1D",
"O  c #2C1D1D",
"+  c #281715",
"@  c #351D1B",
"#  c #3B251E",
"$  c #3C2B1B",
"%  c #2C251F",
"&  c #1C1A24",
"*  c #1D1B28",
"=  c #241C25",
"-  c #291E24",
";  c #241F29",
":  c #2C2324",
">  c #24222D",
",  c #2A242C",
"<  c #2D282C",
"1  c #2D2825",
"2  c #332324",
"3  c #3C2B23",
"4  c #33252A",
"5  c #342A2E",
"6  c #3B2B2B",
"7  c #382826",
"8  c #2A2732",
"9  c #332730",
"0  c #352B35",
"q  c #3C2D32",
"w  c #3A3A20",
"e  c #55361A",
"r  c #432C2A",
"t  c #422C26",
"y  c #44322D",
"u  c #4B332D",
"i  c #4A3926",
"p  c #54392B",
"a  c #4C3432",
"s  c #483536",
"d  c #543A35",
"f  c #563D39",
"g  c #4A4726",
"h  c #58492D",
"j  c #584738",
"k  c #535438",
"l  c #5B5A3C",
"z  c #545634",
"x  c #51512F",
"c  c #64422B",
"v  c #634C3B",
"b  c #694B36",
"n  c #63513A",
"m  c #68563B",
"M  c #72543D",
"N  c #5A6D34",
"B  c #5D6D3E",
"V  c #5A6537",
"C  c #5F733C",
"Z  c #64683C",
"A  c #63733D",
"S  c #69793F",
"D  c #544241",
"F  c #5C4944",
"G  c #5C4742",
"H  c #634E49",
"J  c #664942",
"K  c #645D41",
"L  c #695646",
"P  c #7D5C46",
"I  c #7B5C4A",
"U  c #755746",
"Y  c #685551",
"T  c #725B55",
"R  c #7B5D53",
"E  c #715554",
"W  c #5F7043",
"Q  c #5E6A42",
"!  c #646243",
"~  c #6B6545",
"^  c #6C634A",
"/  c #696B46",
"(  c #74634A",
")  c #79624B",
"_  c #726D4D",
"`  c #796D48",
"'  c #647342",
"]  c #6C7345",
"[  c #657941",
"{  c #6A7B44",
"}  c #6C754B",
"|  c #6C7B4A",
" . c #66774A",
".. c #73744D",
"X. c #727B4D",
"o. c #78794A",
"O. c #6C6A51",
"+. c #7B645D",
"@. c #796956",
"#. c #6E7851",
"$. c #767452",
"%. c #7C7356",
"&. c #747C53",
"*. c #797C54",
"=. c #7F725C",
"-. c #7D7F5A",
";. c #7C6662",
":. c #7D7D63",
">. c #835C47",
",. c #825C51",
"<. c #82644C",
"1. c #846949",
"2. c #836253",
"3. c #8B6B55",
"4. c #816559",
"5. c #846B5C",
"6. c #8C6C5D",
"7. c #896659",
"8. c #936E5B",
"9. c #87775C",
"0. c #97765D",
"q. c #896B63",
"w. c #826C65",
"e. c #936E64",
"r. c #916E68",
"t. c #827263",
"y. c #8A7766",
"u. c #957465",
"i. c #9B7563",
"p. c #9D7A6B",
"a. c #957A69",
"s. c #947C74",
"d. c #9C7C74",
"f. c #A47967",
"g. c #A17C73",
"h. c #6D814C",
"j. c #6F8146",
"k. c #73844D",
"l. c #77874B",
"z. c #758353",
"x. c #7A8455",
"c. c #748952",
"v. c #7B8B55",
"b. c #7D835C",
"n. c #7B8C5A",
"m. c #768159",
"M. c #7E905C",
"N. c #7F8A62",
"B. c #828C5B",
"V. c #808558",
"C. c #82965B",
"Z. c #898B64",
"A. c #888567",
"S. c #9E846C",
"D. c #92896E",
"F. c #968668",
"G. c #899566",
"H. c #958C74",
"J. c #9C8C72",
"K. c #998677",
"L. c #9B9376",
"P. c #90976B",
"I. c #A3836B",
"U. c #AA8B6F",
"Y. c #A68569",
"T. c #B1806F",
"R. c #A18473",
"E. c #A58B72",
"W. c #AA8C70",
"Q. c #A3847B",
"!. c #AC8B7B",
"~. c #AA8578",
"^. c #B28673",
"/. c #BB8B7B",
"(. c #B28B74",
"). c #A49479",
"_. c #B39274",
"`. c #B4927A",
"'. c #BB997E",
"]. c #92A06D",
"[. c #C28D7C",
"{. c #C1A07F",
"}. c #A98A82",
"|. c #A38D82",
" X c #B28F83",
".X c #AE9685",
"XX c #BC9583",
"oX c #BC9B84",
"OX c #B69787",
"+X c #B99C91",
"@X c #BBA488",
"#X c #BAAB95",
"$X c #C39D86",
"%X c #C49B89",
"&X c #C69483",
"*X c #D29C8E",
"=X c #C5A48C",
"-X c #CBA48B",
";X c #C5A388",
":X c #C4A493",
">X c #CBA594",
",X c #C5AC94",
"<X c #CCAA92",
"1X c #C4AA9A",
"2X c #D2A593",
"3X c #D6AC9C",
"4X c #D7AB96",
"5X c #CBB49A",
"6X c #D6B39D",
"7X c #D9B49D",
"8X c #D4B694",
"9X c #CEBCAA",
"0X c #C3B4A3",
"qX c #D5B1A4",
"wX c #DAB5A4",
"eX c #D9BAA5",
"rX c #CEAEA2",
"tX c #E2B8A7",
"yX c #D8C5AB",
"uX c #DACCB5",
"iX c #E4C3AB",
"pX c #E7C6A8",
"aX c #EFCBB5",
"sX c #EECCB8",
"dX c #EDC6B1",
"fX c #E7D3BB",
"gX c #F2D2B3",
"hX c #F4C9B6",
"jX c #E8D3C1",
"kX c #F9E0C2",
/* pixels */
"B.S l.j.l.l.N { j.{ | m...&.#.N.} n.h. .W W #.W c. .m.W b.z.' B.",
"S S v.j.S S N l.v.x.z.&.m.A.$.l ! V #.N.#.O.#.m.m.#.N. .x | / ..",
"v.j.l.j.M.C.j.v.l.B.P.] ! l _ K k k k Q ! N.A.b.Q w O.O.k k K x ",
"j.{ k.S S [ N { X.X.*.z ..%.F.K |.uXH.^ x y x D.@.O.K.@.:.#X0Xs.",
"M.n.v.k.c.l.| z.x.o.$.~ D.#XuX|.yX#X@XuXF.m J.J.( ,X5XeXK.yX,X5X",
"n.h.B ' M.G.z.X.$.g g L.yXuXyXa.%.D.W.yXpX).@X@XyXkX8XyXa.0.1.,X",
"W  . . .&.X.&.b.$.x g L.H.a..X1X,XW.I.Y.;X{.{.0.'.{.U.U.;X'.E.W.",
" . .Q  .&.x.$...! =.=.yX.X#X0X1XJ.I ,X=X,X<XiX7X-X8X<XeX=XI.S.,X",
"N.N.N.N.*.$.x _ H.yX9X9Xw.|.d.w.4.T s.g.+XqX:XwXqX>X Xu.2.e.r.OX",
"g g g K / ! A.#XfXuX0XK.;.T ;.f r @ a E d.}.r.i.OXe.7.a.d.}.d. X",
").^ K _ ).m L.y.y.w.;.D f O s X 9 - + @ F r.R.OXu.7.6.<.p U 2.7.",
"uX5XD.yX.X5XjXjXK.O.y 2 6 4 q - X 2 O r # + i m I.sX6Xi.P M 6.fX",
"5X'.I.`.J.@X1Xr.+Xw.2 X X - * ; - +   $ $ . c W._._._.eXgX8XY.Y.",
"_.7XdXaX+XeX1X.Xs.;.f 9 9 ; > 8 , : % % y d n 1.{.;X{.pXpX7X{.8X",
"<X4XtX'.wX6XwX+X;.Y 4 X 8 > > * * 8 0 O 7 G J U -X$XXX6X%X6XgX8X",
"(./.f.0.(.g.u.q.d H q 9 = > * 8 8 & 0 9 6 a G !. X~.>.7.I.I.i.8.",
">.0./.^.wXI.>.q.K.+.D 2 - , > * > < o 5 7 t 7.I g.,.i.>.b ,.e.8.",
"dX;X-X8.>.i.qX1X+.;.Y 6 X = 8 8 8 1 1 O @ # d i.XXtX>XhXtXtXsXqX",
"{.^.;X6XqXoX!.5.y.;.F 4 = = > ; & < 5 O t u u U p.3X2X4X2X&X^.&X",
"[.gX7X<XoXOX!..X+X;.6 2 < , = ; 1 < - 7 t f g.f.XX/./.i.3XtX X*X",
"<X8XY.Y.<.>X1X}.K.E r 2 4 - ; 9 > o 2 D 3 @ U e.*X4X4X[.*X[.[.*X",
"Y.F.0.p.M I.p.y.+.H s 2 2 9 0 9 5 o 2 + r L q.wX[.f.[.[.&X&Xf.*X",
"_.-X;XP ,.OXu.R q.E d 2 2 q q 4 : 2 6 + d 7.R u.2X{.{.{.T.f.>.*X",
"_._./.e c e.~.qX}.q.H r 7 O 4 q s 6 y y t j I v P 3.c 1.Y.e M >.",
"4X-XY.f.-XOX3Xr.4.d.f a r r D D F F y a J L ) ( 9.h ` F.` ` B.` ",
"(.-X4XdXi.T.g.2.g.g.R f r w.H H Y w.=.) ( n ~ 5.` ~ ` ] o.] X.o.",
"-X4XhXhX&X3X3X:Xu.4.b @.v =.;.L.=.K =.^ O.m L.B.X...x.| z.j.z.k.",
"2X-X7X[.tXwX>X!.6.5.U @.n 9.D.D.y.L._ A./ b.z Z x.V | n.| C c.C ",
"7XaX-X$XoX<XoX.X9.b %.~ Z A...} &.Z V.Z./ &.Z.x.x.N { l.{ C c.C ",
"0.oX=XyX~..XE.5.L g ~ *.-.} X.z.x.n.*.X.' | { ].k.v.x.A k.h.l.h.",
"U P ) U h U m h m 9.x.A.X.' G.[ k.N v.A c.A X.{ S x.v.A l.o.{ k.",
"I.F.P h b E.( A.$._ / &.' { h.c.[ S [ [ j.k.A v.] A B.B.o.Z k.o."
};
