/* XPM */
static char *xpm_[] = {
/* columns rows colors chars-per-pixel */
"32 32 251 2 ",
"   c #0B5F00",
".  c #005000",
"X  c #145F00",
"o  c #0C6600",
"O  c #0D6B00",
"+  c #0A640D",
"@  c #126400",
"#  c #1A6C01",
"$  c #186904",
"%  c #087604",
"&  c #137400",
"*  c #157C09",
"=  c #197606",
"-  c #166D14",
";  c #007C10",
":  c #1B7712",
">  c #236B00",
",  c #2D6A02",
"<  c #247402",
"1  c #227B02",
"2  c #2B7C02",
"3  c #237D0A",
"4  c #2C760C",
"5  c #3D7300",
"6  c #387E00",
"7  c #287612",
"8  c #2B7B13",
"9  c #37760B",
"0  c #167B28",
"q  c #387F21",
"w  c #487800",
"e  c #19880C",
"r  c #218B00",
"t  c #2C8608",
"y  c #3C8901",
"u  c #358A0C",
"i  c #398502",
"p  c #389506",
"a  c #2D8B16",
"s  c #23841C",
"d  c #288618",
"f  c #3A8816",
"g  c #299416",
"h  c #3E9215",
"j  c #399818",
"k  c #128520",
"l  c #298827",
"z  c #338C28",
"x  c #368B28",
"c  c #25932B",
"v  c #2A9825",
"b  c #359B25",
"n  c #399526",
"m  c #248336",
"M  c #3B9732",
"N  c #328E34",
"B  c #3BA729",
"V  c #37A539",
"C  c #35B135",
"Z  c #2EA027",
"A  c #498A06",
"S  c #5A8D00",
"D  c #588506",
"F  c #429100",
"G  c #419B09",
"H  c #46950E",
"J  c #56970A",
"K  c #458C18",
"L  c #42921A",
"P  c #459D1D",
"I  c #4A9C1B",
"U  c #4A9616",
"Y  c #529B19",
"T  c #639F19",
"R  c #4AA517",
"E  c #5AAC1C",
"W  c #59A318",
"Q  c #51AA16",
"!  c #65AB1A",
"~  c #6CAE1A",
"^  c #67A716",
"/  c #74A818",
"(  c #6EB718",
")  c #7CBC1B",
"_  c #75B817",
"`  c #78AE0D",
"'  c #449C22",
"]  c #46992A",
"[  c #5C9D2C",
"{  c #549A29",
"}  c #489A36",
"|  c #519F32",
" . c #428B31",
".. c #619F20",
"X. c #47A627",
"o. c #54A321",
"O. c #5EAC24",
"+. c #53A229",
"@. c #5AA42B",
"#. c #5CAC2D",
"$. c #48B02D",
"%. c #5CB229",
"&. c #5EBA27",
"*. c #4DAB31",
"=. c #49A834",
"-. c #56A631",
";. c #5CA730",
":. c #54AC32",
">. c #5AAC32",
",. c #5DAA3B",
"<. c #56AB39",
"1. c #5BB433",
"2. c #54B338",
"3. c #4CB53F",
"4. c #62AB21",
"5. c #63AA2B",
"6. c #6AA726",
"7. c #7AAB2C",
"8. c #6AB325",
"9. c #62B32C",
"0. c #6AB52B",
"q. c #6DBB2D",
"w. c #67BA26",
"e. c #7CBA24",
"r. c #76BB2A",
"t. c #7CBC2B",
"y. c #72B529",
"u. c #65AD35",
"i. c #79AE35",
"p. c #64BD3B",
"a. c #6CBB3C",
"s. c #67B835",
"d. c #7CBD33",
"f. c #78BC38",
"g. c #54C01D",
"h. c #7DC316",
"j. c #6DC41D",
"k. c #5BC33E",
"l. c #6FC12F",
"z. c #75C623",
"x. c #76C12C",
"c. c #7CC42C",
"v. c #7BCA2C",
"b. c #79C52A",
"n. c #6EC738",
"m. c #75C333",
"M. c #7CC434",
"N. c #76CB35",
"B. c #7ECB33",
"V. c #74C43D",
"C. c #7BC43C",
"Z. c #7DCB3C",
"A. c #74C93B",
"S. c #6BD234",
"D. c #7AD536",
"F. c #75D02D",
"G. c #3DA84C",
"H. c #4D9E42",
"J. c #49AB44",
"K. c #4BB948",
"L. c #5CB644",
"P. c #58B745",
"I. c #52B459",
"U. c #4CA649",
"Y. c #6CAF46",
"T. c #6BB947",
"R. c #7ABD41",
"E. c #78BA47",
"W. c #7CBE50",
"Q. c #6EBB51",
"!. c #5CC44C",
"~. c #64C342",
"^. c #6BC544",
"/. c #69C949",
"(. c #74C344",
"). c #7DC344",
"_. c #75CC43",
"`. c #7ACA43",
"'. c #7DC44B",
"]. c #78CA4D",
"[. c #7BD245",
"{. c #74D348",
"}. c #68C954",
"|. c #7DC252",
" X c #78C958",
".X c #6CD04A",
"XX c #8DBB0B",
"oX c #88BA19",
"OX c #94B718",
"+X c #91BE0C",
"@X c #8CBD25",
"#X c #84BD2C",
"$X c #8CBC2C",
"%X c #85BB25",
"&X c #96BB2C",
"*X c #83BC34",
"=X c #8CBC37",
"-X c #84BB3C",
";X c #8BBB3B",
":X c #88B534",
">X c #94BD38",
",X c #82AC2D",
"<X c #AFBC26",
"1X c #89CA1B",
"2X c #87C519",
"3X c #96C618",
"4X c #8ED018",
"5X c #8BC20F",
"6X c #85C323",
"7X c #8BC423",
"8X c #81CA22",
"9X c #84C42A",
"0X c #8AC22A",
"qX c #83CA2E",
"wX c #8BCB2A",
"eX c #8BCC25",
"rX c #94C322",
"tX c #9BC32C",
"yX c #94C928",
"uX c #89D22B",
"iX c #90D024",
"pX c #84C434",
"aX c #8BC433",
"sX c #83CB32",
"dX c #8ACC34",
"fX c #84C43B",
"gX c #8BC43C",
"hX c #83CB3D",
"jX c #8BCB3B",
"kX c #94C936",
"lX c #9ECA34",
"zX c #93CB3C",
"xX c #98C636",
"cX c #89D337",
"vX c #92D435",
"bX c #93D33C",
"nX c #A0D231",
"mX c #A7CC24",
"MX c #91BA41",
"NX c #82C243",
"BX c #8ACB44",
"VX c #84CA4A",
"CX c #87C845",
"ZX c #95C847",
"AX c #84D345",
"SX c #8CD348",
"DX c #99D242",
"FX c #92CB54",
"GX c #91D055",
"HX c #A0CE48",
"JX c #8CDB6C",
/* pixels */
"I.I.c a u 0.*XD w [ W.2.}.v s JX@X&Xi.9 #.[.1.!.V e r y pXjX9._.",
"G.l O R q.fXZX-XVXu.] v b = = a.aX$X5.< P n.:.X.e * l.B.fXC.P X.",
"0 m U y.wX2XcXT.P.c c K.*.H T gXm.%.>.h #.(.+.8 a u x.qX8.1.v c ",
"+ } f.9XyX) hX*.V k ; !._.M.aX#X^.X.1.V.C.C.P @ T.VXpX#XY p % ; ",
"L W ~ z.bXw.<.l l z h m.qXwX9XE J.e p uXwXb.E H 5.FX;X;XS t g C ",
"`.w.J ~ B.%.] s o ;.gX0XoXwXb.X.c % y h.1X1XN.Z.MX;XMXMX5 < k.!.",
"(.#.2 J x.n.p.%.O.d.%XD S pXa.1 x -.` 3X2X1Xz.v.J w i.MX^ ^ AXF.",
"W.Y X I _.{.V.Z.jX0X7X5 5 r.f.# 9 MXrX3XoXsXF.F.i , 7.-XfXsX0X0X",
"-Xf.a.-.:.u t 8.pXaX#X/ *X*XBX! :X$XtX@X6.@.9.N._ ( x.`.E W yX&X",
"aXgXT.:.=.3 # ^ zX$XBXNXCXC.jXaX@XtX@XBXY.} s.`.v.h.S.{.R R xXoX",
"jX8.-.a & L M.zX=X;XFX{ { ).bX9XoXSXa.@.l - ,.VXM.l.$.B % & 9X7X",
"^.P n u > W kXoXlX*XVX| { (.c.wXjXC.,.=.x $ K VXf.(.B Z e r z.h.",
"G.v = U =X3XXX3X) Y n - 7 T.jXzXa.+.v : h V.jXDX4.;.o * $.&.uXh.",
"V s # A 0XrX5X1XD.p.B : d '.jX9XR.] n & p cX0X/ ..+.# < 9.Z.eX4X",
"A.N.M.jXM.CX{.j j & = ,.MXpXoXwX5.@ d ~.cX1X+XnX*XVXZ.t.zXlX2X+X",
"! v.c.r.a.n./.C v s t R.hX9XoX9X8.2 a }.hX2XoX` 9Xx.kXoX@X&XtXrX",
"> K AXO.X.3..Xt @ Y.].n.B.F J BXF.S.!.v >.SXA , ^ 8X4X5XtXlX,X>X",
"7 ] V.R j ~.n.y 9 T.n.w.D.H K ).D.g.K.M ,.'.J w ^ v.h._ / T ;XBX",
"].T.] 2   W wXvXy.GX`.R p O 2 ].E R d   K VXsXbXD._.>.+.> > AXm.",
"(.1.t ' H 6.) yXfXNX5.O.W p n P.1.u n  .5.pXc.x.p.L.l x K A D.j.",
"Z.R # L r.9X0X@XCXo.Y C.M.m.}.J.=.. d  XVXfX0XhX=.U.- $ W.aX) 1X",
"b.w.+.u.dXwXzX0.a.u A t.e.d.~.z N H.} h 6.gX/ 6.h l N ] d.7X3X4X",
"sXhXR.C.8X) VXU.z = < ( wXvX9.# 7 JXT.> 6.HX/ J < o L.'.7X5XmXOX",
"m.q.O.M.8Xw.L.m l n I 9X6X6X8.o.u.R.y.^ :X>X:X#X>.X.:.o.iXXXOXtX",
"{.p.A 4.sXE N 0 - 2.C.jXsXe.dXsXdX6X9XlXZX;X&XqX_..XX.] x.qX*X-X",
"$.j 2 W B.j k G.2.A.M.gXfXW ~ 9X7X7Xe.^ ,XMXaXpX&.B e = s.hX5.5.",
"C r $ U (.a + <.m.9XVXMXW.[ W qXr.x.( R d.GXpXA.:.g % & 9.V.' | ",
"% B p.@.u.^.>.A.vX6XCX..} 8 i sXa.+.j = G M.4.o.a d X.1.AXV.2 = ",
"= j ].@.x Y.d.v.iX_ d.{  .7 i hXQ.} b r p S.0.L < < 9.cX6X~ 2 # ",
"dXy.hXY , @.t.2X_ ~ 5.8 q Y.f.CXY.8 b k.S.D.`.f.MXu.dXyXoXqXC.(.",
"OXtXvXF > [ aX2XsXq.' > , MXSXgXi.5 f a.F.( e.zXNX;XrX3XrXaXA./.",
"<XOX2XB.W.E.e.6XN.o.' Q.Y.JXMX=X&X>XE.VXqXh./ S 7.lXOX+XlXt.Q Q "
};
