/* XPM */
static char *result[] = {
/* columns rows colors chars-per-pixel */
"32 32 14 1 ",
"  c #9C5A3C",
". c #9D5A3C",
"X c #9D5B3C",
"o c #9C5A3D",
"O c #9D5A3D",
"+ c #9D5B3D",
"@ c #A4CC46",
"# c #A5CC46",
"$ c #A4CD46",
"% c #A5CD46",
"& c #A4CC47",
"* c #A5CC47",
"= c #A4CD47",
"- c #A5CD47",
/* pixels */
"*%*@%*$-=$*=@%--$--@@=@&-$$#@$@*",
"#&@-&#=@*&-==@@@$#%$=#&&=%-#*@*&",
"*=@X##%-$$%#&@==$&-&@&$@&$#$@$==",
"=*#-=&*#@-#-#@=$$&%==%=%=&$ #@$-",
"&%=&%&#$*#$==#%--@*@@-#$@-&*@--@",
"@%*%%=@%@#%&&-@#$&==%$$@&#-**%=&",
"@#*%##=$*&%-*&&=*&-#@%#$$*&&&&%*",
"$=$#@-=#@$=#$**%=$%*$$@%&&#$$*$&",
"=*@&#&=*=*-&%%$#%-@*@$%@$$#&&--$",
"$*-#&*=&o&&@*-%@&---@*-$%@-$#=-$",
"=%=%&$*##*#*&@*@-%==$=&%-&*$$=#&",
"$=&&-$*@$#&#@%&#&%$#@---@@*&-*%*",
"#%*@@%=&*$-=$@$%=*--$*%$##X#@@@*",
"$&%#**&*=&&@*@&*@$@--@-@--=&==@&",
"%-&=*&&@--@#&%&-@&==#$&$=*$@&=&@",
"@-$*#=$*###$#-=*%&#==&-#=#-&@%$$",
"*=$#%#-&-*&&&%=&#*=-=#&#&%&*@$&-",
"-=#=%-@%#$@#=-==#*&@$-=##$&#$&=*",
"-$-$*%-#$$*=&+##%&*$$#$#%%*.%@-@",
"%*=@=*@$&&@&@*#=##$%&$*%=#$*$-=@",
"@%#*#=$%$*--&@-#-$&-=$*&%%&@%@#&",
"@@-%-=@$%&##=$-*#%#%&*#&&=$@*=#*",
"**&%%#=*$#$#$$%-@-#%=-#%%@%=-@#*",
"#%-==-$-=***$*@&&*@-&#%*$%$$*$%-",
"&$#@*##-*@%$*&--@@--%&=-**--%@=$",
"-@.-&-*==$###$&%%@$#@*&#&***@=@%",
"=@=-&%*%@@=*@@&&%$*$*-=&=$&&*%##",
"&*@@&$@@$$@@*$%*=@#@#@-%&*=&#&&$",
"@=%--O-@$-@$@@&=$@@#-&@@$-*&%*@&",
"#==&%*-&&%=%@-=$%@$&@ $%%=%=&-*$",
"#=%#*%%#&*-%&=*#&=$*#%=##$*=&O&*",
"%-#@&@*==@%*$*=&%-*#*-%**$---=&&"
};
