/* XPM */
static char *_6aafa8d29c84ffdc3ce6afedb4529c7LUmySAUNaR4O2sCY[] = {
/* columns rows colors chars-per-pixel */
"71 71 256 2 ",
"   c #025D2C",
".  c #055A27",
"X  c #025D34",
"o  c #095D35",
"O  c #025D3A",
"+  c #0A5E3C",
"@  c #035536",
"#  c #02642D",
"$  c #036A2D",
"%  c #09672A",
"&  c #06762D",
"*  c #1A792B",
"=  c #026334",
"-  c #0A6434",
";  c #026A34",
":  c #0A6C34",
">  c #03633A",
",  c #0A643B",
"<  c #036C3B",
"1  c #0B6C3B",
"2  c #146A39",
"3  c #047234",
"4  c #087738",
"5  c #137434",
"6  c #1B7533",
"7  c #1B7B3A",
"8  c #177838",
"9  c #166927",
"0  c #237A2B",
"q  c #237433",
"w  c #227B35",
"e  c #247D3A",
"r  c #287938",
"t  c #2E7832",
"y  c #005D1B",
"u  c #045D41",
"i  c #0A5E51",
"p  c #046342",
"a  c #096A43",
"s  c #126C42",
"d  c #156A47",
"f  c #087445",
"g  c #177843",
"h  c #0B7255",
"j  c #267B41",
"k  c #216F48",
"l  c #15862A",
"z  c #15962C",
"x  c #0B8637",
"c  c #148C32",
"v  c #13853B",
"b  c #138C3B",
"n  c #188636",
"m  c #0D9638",
"M  c #139335",
"N  c #1A9335",
"B  c #1A9A35",
"V  c #14933D",
"C  c #1C9C3B",
"Z  c #189637",
"A  c #098B2B",
"S  c #2B882B",
"D  c #358C2C",
"F  c #3C8B2C",
"G  c #378729",
"H  c #2A942E",
"J  c #3B922A",
"K  c #2A8534",
"L  c #3B8B31",
"P  c #368936",
"I  c #249837",
"U  c #3A9335",
"Y  c #18A82B",
"T  c #1CA435",
"R  c #14AD33",
"E  c #1CAC35",
"W  c #1CA43C",
"Q  c #15AB3A",
"!  c #1BAB3B",
"~  c #16A43A",
"^  c #1CB23B",
"/  c #18B337",
"(  c #11AD2E",
")  c #24AD2D",
"_  c #2CA82C",
"`  c #39AA2C",
"'  c #23B22C",
"]  c #38B32D",
"[  c #23A534",
"{  c #24AB34",
"}  c #2BAB34",
"|  c #24A53A",
" . c #2BA53C",
".. c #23AC3C",
"X. c #2AAC3C",
"o. c #2BA536",
"O. c #33AC33",
"+. c #3CAE33",
"@. c #37AA3A",
"#. c #23B234",
"$. c #2BB234",
"%. c #23B23B",
"&. c #2CB23B",
"*. c #33B234",
"=. c #3BB334",
"-. c #34B23B",
";. c #3AB43A",
":. c #39B834",
">. c #2C971E",
",. c #51991C",
"<. c #55A11D",
"1. c #52B917",
"2. c #69AC1C",
"3. c #65B81D",
"4. c #72B21C",
"5. c #73BC1D",
"6. c #7CBC1B",
"7. c #7DB917",
"8. c #76AF18",
"9. c #428A2A",
"0. c #4A9627",
"q. c #549D25",
"w. c #539B2B",
"e. c #589929",
"r. c #448933",
"t. c #499535",
"y. c #549834",
"u. c #629F2E",
"i. c #49A728",
"p. c #58A527",
"a. c #44B42C",
"s. c #4CB52B",
"d. c #49B626",
"f. c #53B32B",
"g. c #5CB52C",
"h. c #5CBA2D",
"j. c #55B928",
"k. c #47AC35",
"l. c #5BA630",
"z. c #4BB434",
"x. c #46B636",
"c. c #58B734",
"v. c #68A827",
"b. c #72AC25",
"n. c #74AA27",
"m. c #64BB24",
"M. c #6BBD24",
"N. c #62B52C",
"B. c #64BB2B",
"V. c #6BBB2C",
"C. c #69B426",
"Z. c #74BB24",
"A. c #7BBB23",
"S. c #7BBC2A",
"D. c #75B626",
"F. c #73AD36",
"G. c #67B933",
"H. c #77B733",
"J. c #6CAB33",
"K. c #7AC21D",
"L. c #6BC11F",
"P. c #64C027",
"I. c #77C325",
"U. c #7BC432",
"Y. c #5AC321",
"T. c #0D8443",
"R. c #168A43",
"E. c #1A9846",
"W. c #099741",
"Q. c #279745",
"!. c #328C43",
"~. c #1BA543",
"^. c #1CAB42",
"/. c #15A841",
"(. c #23AC43",
"). c #2AAD43",
"_. c #25A845",
"`. c #34AB41",
"'. c #24B243",
"]. c #2BB345",
"[. c #36B446",
"{. c #4C9145",
"}. c #50B742",
"|. c #62B946",
" X c #89BD0D",
".X c #8BBD14",
"XX c #84BD1B",
"oX c #8DBE1D",
"OX c #84B916",
"+X c #92BE17",
"@X c #92BD1D",
"#X c #9ABD1C",
"$X c #9BBF15",
"%X c #81B622",
"&X c #84BC24",
"*X c #8CBD23",
"=X c #84BC2A",
"-X c #8DBE2B",
";X c #87B527",
":X c #93BE23",
">X c #99BE23",
",X c #92BD2A",
"<X c #9BBB28",
"1X c #95B727",
"2X c #89BB32",
"3X c #97BE31",
"4X c #82AA26",
"5X c #A4BF22",
"6X c #8AC20C",
"7X c #97C60E",
"8X c #85C216",
"9X c #8CC315",
"0X c #8ECB15",
"qX c #85C31C",
"wX c #8CC31C",
"eX c #8BC91C",
"rX c #84C917",
"tX c #93C415",
"yX c #9BC415",
"uX c #94CA15",
"iX c #9BCB15",
"pX c #93C31C",
"aX c #9BC41C",
"sX c #93CA1C",
"dX c #9ACA1C",
"fX c #9AD114",
"gX c #A2C31C",
"hX c #A3CA19",
"jX c #A2D21B",
"kX c #85C323",
"lX c #8CC322",
"zX c #8CCA23",
"xX c #86C22A",
"cX c #8DC32A",
"vX c #8AC927",
"bX c #93C323",
"nX c #9BC423",
"mX c #93CA23",
"MX c #9BC923",
"NX c #93C32A",
"BX c #9AC52B",
"VX c #94C92B",
"CX c #9BCA2B",
"ZX c #9BD126",
"AX c #8CC132",
"SX c #88C437",
"DX c #94C333",
"FX c #9BC533",
"GX c #94CA31",
"HX c #9BCA31",
"JX c #96C739",
"KX c #97D033",
"LX c #A3C524",
"PX c #A5CA26",
"IX c #A2C633",
"UX c #A5D121",
/* pixels */
"7X>XnXG.! #.%.Y = > > = 7.bX9XbXq O = = t.PXpXmXyXyXnXnXOXX.%.O.%.kXnX@XpXwXbXcXdXh.[ %.%.x.pX*X:XbXsXpXLX+X*.{ ^ '.4   =   0.sXlXpXBXyXnXaXwX",
"1.B.P.i.M c R.N F F D F kXbXwXwX0.U D F i.M.m.P.h.c.G.B.f.V W.A N K.eXpXbXlX*XoXyXk.m V v ` dXlXsXqXN.N.B.N.B R.N b S F U G 2.nXbXbXU.j.B.m.m.",
"~ ~.^ c > . @ q cXMXPXBXbXbX>XgXeXpXaXdXd.[ (.(.! E E E T # X , , ;XmX*XwXsXsX9XMXJ # , X S nXwXpX5...E Q X.; o X - n.UXmXeXsXyXlXbXh.R E R :.",
"( [ #.V p 3 ; 6 dXwXwXwXwXsXcXwXeXoXNXbXg.~ %.E X.%.X.E W % > 1 : A.zX*XrXkXlX+XMXt.> 1 = K MXpX:XI.[ %.E E : - < > C.wX:XbX*XqXbXaXB.! } ! O.",
"Y -.].V X , O 5 pX@XyXbXlXcXNXbXbXaXaXpXc.^.#.$.#.Y E #.B > p # ; 6.sX>XpXBXBXpXCX9.  = X G pXoXiX&X[ %.{ ^ ; = a O b.dXkXpXNXpXmXsXP.! } ..+.",
"A | B z 0 r 6 D bXcXzXlXpXpX9XpXA.I.S.I.` z B E. .] ;.;.@.6 6 0 K XXmX*X@X%XA.M.I.U t e 8 0.dXNXvXD.B B I E.0 w l q 8.sXkXwXlX5.A.A.f.E.C ~ _ ",
"y < O D sXbXwXzXcXpXpXwXbXcXcXnX;.Q R { 8 > - = G sXbXpXbXbXeXpXlXpXlXbXsX:.E E T Y.pXpXsXlX,XrX>XH.# ; # ; %XMXbXVXtX9XbXbXf.! X.%.M = > > 6 ",
"% 3 X D uXoXeX#XlX$XbXlXpXwXeXbX] W { #.v # < > P dXbXpXwXNXwXpXcX9XbXbXbX*.{ | (.j.pXbXlX@X<XmXpXb.> - ; a OXlXbXwX>XDXwXuXc.~ o.%.Z - 1 = * ",
"  : > P MXoXaXbXlXwXnXpXbXbXoXnX=.! #.&.v = < = P 7XkXpXcXaXoXkXcXlXoXwXLX:.Q } ^.h.yXwXlXkXpXlXpXC.> < > , ;X0X*XbXtXlX@XsXj.W #.%.z > ; X * ",
"% % 1 P cXlXkX*XbXwXlXlXkXlXK.kX*.T ) | v ; a , D sXkXpXvX@XpXpXuX6.cXlX*X+.(.T W j.dXlXpXpXyXtXdXD.- < ; : D.eXbXwXtXwXpX0Xf.| [ } M = ; : S ",
"+X=X&X3.{ (.) a.wXwXaXkX*.} } O.5 < ; # y.wX7.XXqXpXmXbXwXsXNXkXkX+.).} $.& = $ - e.BXlXwXkXoXlXwXbX&XwXOX&X>XNXwXlXwXmXlXBXt.# ; = S pX*XOX7.",
"yXbXMXM.Y %.Q _ lXwXpXlX} | ..| 4 = ; = w.dXbXnXlXNX$X#XbX8XNXaXbX} ^.T #.& , ; > 0.mXoXpXbXpXeXbXbXBX@XpXsXoXoXbXpXlX:XwXiXU = > > P dXNXbXmX",
"7XXXbXB.~  .^.+.bXwXwXkXX.X...! & ; < > 0.sXbX:XpXeX9XpXmX:XbXlXpX&.(...X.3 , < O 0.ZXwXlXbXpXoXNXwXlXeXwX9XcXdXoXlXeXpXcXMXJ > ; > K iXlX@XkX",
"yXkXsX3.R $.{ =.:XqXpXkX} E ..E 4 > > X y.MXoXlX:XVX9XbXcXpXwX@XwX&.E %.).& # < > 0.mXbXpXpXpXpXwXrX,X,X,XaXkXsXmXwXwXbX9XZXL   # = P dX*XnXpX",
"8XcXmXl.3 4 4 l lXlXbXbXK.K.5.A.D.n.b.4.6.+XmXyXv.6 n j P pXwXsXXXx & 4 : y.D.2.b.XXuX@XwXlXcXkXbXwXbXeXlXAXK 6 6 q C.wX,X>X7.n.n.4.A.wXmXpX+X",
"6XbXgXu.= +   q bXqXbX@XbXBX>XbXtXmXsXeXmXbX*XmXl.+ ; > 5 bXpXNX-X2 # = = F.fXpXBX:XlXbXpX>XbX9XoXbXoXsXtX*X$ > > o J.mXpXpXmXsXbXsXpXpXwXlXoX",
".XbXmXp.O : # 5 MXwXqXbXkXoXNXcXqXbXbXpXlXpXwXdX<.X : % 6 sX*XoX+X& ; : = n.dX,X:XsXlXpXsXwXbXkXwXlXwXcXwXwX& : 3 = n.sXaXkXkXoXoXwXaXwXBXpXpX",
"qXbXsXq.+ = > 6 lXmXtXBXyXdXuXbXpXaX*XwXwXpXkXVXw.+ + O r wXbXsX&X: O > X p.eXwXlXeXxXwXpXpXpXMXaXpXaXbXdX&X: u X - v.tXpX>XbXLXBXVXbXwXwXwXlX",
"6XoXsXZ.p.<.l.p.a.s.s.x.D D D G A.pXlXwXbX>XwXpX%Xe.q.i.v.wXpXlXoXl.e.p.e.XXeXbXpXpXbXbXbXS.a.z.z.j.pXlXpXwXp.w.e.e.S.pXkXmXm.a.s.x.C.pX0XpXlX",
"tXbXmXbXdXaXLXqX..W ^.T > X > X v.uXpXwXbXNXlX@XtXpXiXmXmXbXpXkX>XCXdXiXdXaXlX>XbXpXaXwXpXV.Y W ~.} pXbXwXbXsXiXiXlXcXnXxXdXs.! ! W a.pXsXpXbX",
" XpXwXoXwXxXwXM.E E Y [ < - $ < b.yXcXlXpXaXeXlXcXcXpX*X9X+X6XeXbXeXtXNXbX*XzXtXxXwX9XlXaXC.E X.E :.eXpXzXNXwXkXbXrXwX9XwXyXs.E ....a.aXwX@XNX",
".XMXVX>XpXbXyXI...&.#. .< X X O b.pXcXlXwXtXeXpXnXbXdXBXmX5XlX,X>XwX9XbXeXkXNX:X>XuXsXMXMXM.{ %...=.bXwXeX>XtX:X<XtX$XpXbXPXc.X.#...x.pXbXbXbX",
"7XwXsXA.N.N.M.f.b l b M H G L 9.4.pXpXpXlXbXbX>XXXj.3.h.B.#XlXeX:XBXbX:XbXbXpX@XNXZ.N.N.M.i.b V b H BXzXqXwXtX9XwXsXH.h.g.P.` b M n @.pXoXwXeX",
"dXqXaXg.^.~ ! Z < = > > XXdXZXnXmXnXoXbXVXtXpXcXB.^ T /.k.+XnX9XlXlX9XbXpXcXeXeXsXd.^.T ) M O ; X * <XrXnX>X>XcXwX*X-.~ ! #.v X # X K sXpXbXbX",
"yXAXlXV.T Y #.B > # 1 ; %XwXqXcXlXbXbXbXcX:X0XeXV.Q  ...*.zXbX+XwXlXlXbXpXcXpXlXpXf.~.} '.z 1 : > 7 pXwX>XbX@XcXtXnX=.E  .) A ; ; < S BX*XbXwX",
"7XaXaXM.%.%.).[ > = = > *XnXbXbXpXpXwXaXbXnXaXgXm.'.#./ -.lX:X>X:XpXwX>XbXmXpXBXLX1.( '.].Z > > > 5 pXbXlXpXaXwXyXaX;.^ X.' b u X o S MX9XbX&X",
"6.S.S.d.M B C z 7 n q w &XwXcXwXpXwXkXpXkXZ.Z.I.f.N I C o.pXbXBXbXwXeXbXpXI.5.S.U.k.Z B C M 0 * e L 6XkXwXpXZ.I.I.I.`.z B ~ n q 7 w J cXwXbXlX",
"Y E X.c > : , 6 wXsXyX0XbXwXbXpXpXbXNX>Xs.Q ! ^ Z > > # * #X0XwXbXlXwXbXlXx.[ _.{ v > ; = !.LXdXpXpXsXcXlX=X_ ! ~.{ 4 = > > 0.hXbXoXwXaXoXpXbX",
"Y ^.'.z O 3 # 5 mXwXoXwX,XbXNXoXlXkXwXnXj.W  .#.M > 1 , 7 >XwXwXpXlXwX#XpX=.R / &.x ; p X S nXwXNXwX9XtXlXlX`.%.} ' 4 = : # 0.pXbXpXeXBX:XbXpX",
"Y ).%.z = ; = w aXbXBXlXtXwXwXlXBXlXwXMXj.[ { ' C O $ # & pXpXNXwXwXwX:XbX+.E ....x # < > G nXwXtXwXbXpXpX0X[ / [ %.4 = p O y.sXlX@XlXlXoXlXbX",
"Y X.#.N 1 : : 7 wXwXaXoXeXNXkXpXeXqX*XbXd.| | | R.: 3 , 7 NXpXNX#XbXaXlXdXO.T E ^ A 9 ; # L MXwXlXpX3XwX@XcXO.].#.X.8 % 1 - 0.zXwX@XmXkXbXlXpX",
"6.kXzX;X&XqXA.XXdXbXcXzX9X#XlXbXk.&...&.A ; 1 < G kXXX;XK.pXtXkXlXcXwXlXpXK ; 1 o 0.,X&XkX*XbXpXlXkXaXlXeXyXcX.XkXkXkXqXXX=XbXpXlX:XpXlXbXwXwX",
" X>XpXpXoXpXbXsXoXlXbXcXbXpXlXsX&.! [ (.T.> ; O S CXbXsX0X=XpXoXbXlXaXlX+Xr o $ O 0.gXbX,XmXwXmXlXbXrXkXbXwXwXwXwXbXpX@X#XBXwXwXwXbXpXpXpXbXlX",
".XnXmXtXcXlXwXcXeXwXyXaXlXbXpX@Xx.{ } $.l # < = S dX:XwXlXmXaXlX*XlXzXNXiXw = f > y.yXqXbXwXwXpX:XlXaXoX:XnXlXbXbXcXbXbXlXlXbXNXbXwXlXlXlXwXpX",
"9XsXqXbXwXbXbXbX0XbXpXpXlXpXqXbX:.Y ^ (.v % < X G tXBXwX*XbX+XdXbXsXlX@XcXw > > X t.dXtXdXNXbXoXcXqXbXsXuXbXwXwXNXlXlXwXwX9X+XpX#XpXpXwXbXbXbX",
"9 * w t.bXeXNXA.*.=.] =.kXpXkXpXj 4 4 1 L 4.D.n.&XtXK.dX2X;.` O.] XX:XpXzXD.b.2.4.d.[.&.` g.tXNXpXD.6 7 8 * =XsXoXtX0XwXNX,XcXbXpXbX:XbXoXbXbX",
"X f O S PXwXaXI.W ! ! ..&XpXkXsXq = $   w.jXbXpX#XbXbXbXL.E { /.[ kXdXpX9XaXpXnXPX1.W { ! z.pXpXpXb.= > = ; ;XpXwXyXaX:XbXwXwXwXeXqXwXsXpXwXpX",
". $ o J aX=XpXM.'.Q E { &XbXmXtXK > ; = 0.MX,XbX*XwX@XeXI.o.[ ! } A.zXbX-XeXrXxX#Xf.^._ W a.BXcXmX4.1 < ; : A.wX:XeXqXlXpXyXbXcX:XbXbXoXNXbXbX",
"@ = + t MXpXhXkX} #.} } qXpXbXpX6 > p + 0.sXpXlXzXMXdXgX-X^ #.) &.kXbX9X>XyXsXlXhXg./ { (.d.nXoXeXD.  > > % S.sX,XuXaXmXeXsXnXgXuXdXpXbXNXbXoX",
",.e.,.k.j.f.s.+.4 v x v XXpXkXpXv.0.0.q.b.sX+XMXA.x.z.s.k.x n T.l 7.bXNXrXg.z.f.z.U x n 4 U pXXXpX*Xe.w.e.,.lX@XmXqXm.z.f.f.t.F U G q.GX.XpXpX",
"jXsXPXm.( | (.m > ;   , 4XsX-XaXsXMXnXCXbXwXqXuXN.E / { B > > > > A.lXwXzX` Q | E x   >   K gX#XwXbXmXdXmXuXaX>XwXwX@.[ E / x   > . S pXcXwXpX",
"sXXX<Xm.! { X.B ; ; ; ; &XuXwXpXpXbXpXwXwX:XnX#Xm.Q ..$.T < ; % < D.nXXXmX] W  .#.x = > 1 S pXlXlX*XaX+XcX9XwXwX:XnX[.E [ &.b - 3 + K uX:XbXmX",
"tXlXLXP.%.) $.)   O > - ;XpXwXbXbX*XlX0XeXlXnXgXm.! _.! C = = u . 2XgXyX$Xs.%.{ #.x @ a i !.BXoXlXbXbX*XcX9XmXsXsXdX=.E $.-.x X > O K 7XbXwXlX",
"7XeXaXf.R.V b b F P D J %XpX.XbXzXlXpXnXI.h.N.h.c.f.f.a.k.G G D D G.h.B.B.H V c b S 9.F {.u.nXmX8X9XwXbXpXtXC.g.h.V.I N N c S r.L G w.nXbXwXwX",
".XzXMXp.= > = 5 PXLXdXwXbXBX:XbXpXpX@XbXs.! ! ^.a.aXpXpXmXnXsXMXvX` '.).X.3 O X + 0.jXMXZXmXaX*XbXwXwXbXwXxXo.~.E ..4 > > # e.hXsXaXpXBXbXpXpX",
"8XcXdXp.= 1 % w 6XoXNXwXwX9XbXbXwXbXbXpXj.Q X.[ x.LXkX@XpXpX&X1X>X-.[.[.`.T.- $ O 0.mX2XkXVXmXkX3X@XlXoXpXxX} ! o...& # p > y.dX*X3XpXoXlXlXpX",
"9XbXnXe.= > X 5 zXpXwXpXbX,XNXeXpXbXBXyXh.! $.Y c.gXqXtXpX:XoX#X:X[.-.`.[.f , =   0.CXNXZXLXBX>X-XoXpX9XaXwX] &.} ..4 X > = w.bXeXlX9XkXmXwXpX",
"tXbXsXv.q K w S pXmXoXbXpX>XwXeXS.D.I.I.i.E.C C ` :X-XpXoXbXwXqX-X`.| Q. .P r e e 0.n.H.F.2XAXoXwXoX;XD.S.V.T E.M C w * 0 * <.mX>XpX@X3X:XwXbX",
"9XlXpXzXNXpX#XcXbX*XpXwXbXwXbX>X=.R E #.T.= = O D VXwXbX*XbX*XqX*X2 - s a F.hXHXMX9.X > d L CXoXoXZ.~ [ ..[ ; = ; # C.dXbXmXpXpXeXwXlXlXlXpXbX",
"6XpXpXlXpX8XwXsXeXbXpXlXwXbXeXnX] E | ..v > 3 , P aXlX*XwX0XpX XoX% > a s F.PXAXCXt.: : s L PX-XbXZ.[ O.[ | 1 = $ # v.yXlX+XpXpXwXwXlXlXwXpXbX",
" XlXcXbXnXbXbXwXbXBX6XwXbXNXwXpX=.E E %.l X ; > S hXwXpX>XkX*X@X*X% ; 1 d F.UXcXZX{.a 1 d L UXAXnXSX].].E | 1 a , p v.dXcXpXlXNXwXpXbXlXlXpXbX",
"6XvXbXwXkXcXlXwXpXNXpXbX*XxX8XkX$.T ..~.v : : 1 F bXoX#X@XqXoXpXA.6 ; ; : J.dXBXCXy.s s d t.nXFXCXSX`.`.].].R.g 5 % v.bX*XkXXXwXpXpXbXbXlXbXbX",
"0X,XpXB.X.$...@.wXbXwXlX*.X.{ } 8 > < : t.oX&X6.XXwXbXbXlXeXbX@X>X%X&X*X%XNXNXcXKXxXcXDXAXcXHXGXMXBXvXDXbXDX,X*X*X2X+.#.&.[ N.MXbXbXbXbXbXbXbX",
"fX*XiXm.Q E { ;.eXkXbXlX{ E { ..4 = : # 0.fXlXbXyXkX:XwXkXwX:XoX*XBXHXFXmXOX1XIXDXmXLXFXmXVXDXBXVXBXGXmXHXFXNXzXeX@X=.E [ ! g.yXlXbXbXpXbXbXbX",
"iX&XpXV./.X.| -.@XlXpXqXO...{ ..4 # 3 > y.dXoX9XcXcX#XpXbXlX*XbXGXVXvXbXHXlXXXeXVXHXFXJXFXmXbX:XXX,XNXlXbXbX@XlXlX>X+.! { ! g.dXkXlXpXpXbXbXwX",
"7XbXnXC.Y %.E :.wXmX0XwX$.X.E &.4 o < X ,.aXNXlXwX+XbXkXeXqXaX<XVXMXHXBX>XbX*XkX:XnXBXCXIXbXnX,XoX@X:XwX*XbX>X9X9XnX+.E %.E h.MXkXkXpXpXpXwXwX",
"_ ] ] I 5 3 4 S lXdXpX=X* 4 4 & p.4Xb.n.XXbX*XwXtXbXoXwXH.$.;.x.x.JXbXBX*X-X:X.XoXN.@.x.[.|.BXBXbXvX+X@X,XwX=.X.*.;.c $ 4 3 0.dXqXbXZ.-.k.@.z.",
"~ _...M > % = * lXlXeX&X1 O ; > 3.dXmXBXsXwXoXNXbXbX*XbXS.! ..'.[.DXbXpXoXoX*XoXbXz.~.).^.}.IXBX3XcXbXwXpX+XO.(.Q ! 4 > , X 0.nXpXaXB.Q E ~ ` ",
"( @.&.M p : > 8 MX#XlXcX1 : : > v.nXkXoXpXoXaX*XwXwXlXbXA.(.-.`.'.xXxXqX=X:XoXXX:Xs.R { ..}.PXsXDXvXlXqXkX*X} | _ _ 3 ; 3 = 0.MX*X>XC.! } [ O.",
"( $.%.m > = X 5 wXyXiXOX, = = o v.pXwXbXbXlXpXoXpXbX>X#X5.X.[.[.[.DXbX.X;X*XpXyX$Xg.o.} o.z.PXcXnXpXoXaXnXNXO.^ #...4 X > X 0.mXwXaXm.^ #.%.*.",
"& n x S <.i.q.i.z.f.z.a.w.p.q.e.A.aXeXbXcX*XkXbXL.x.z.s.k.l b R.n kXwXwXoXc.z.i.f.H n b 4 U CXbX>X=Xk.z.s.] v g 8 R.0.<.i.q.C.lXbXgXp.x x T.K ",
"  > > G jXmXLX*X! R W (.wXdXMXMXbXpXrXwX@XpXwXpXC.~.~ E E.- 1 d a SX3X*X@XO.~.Y ..T.d 1 - t lX*XpXZ.Q | [ Y : - # > b.hXMXnXMXpXkXpXp.  #   6 ",
"  3 ; D mXlXbXI...[ [ | lXkXwX:XoXbXlXpXoX,XoX#Xm.(.[ ) B ; s k s NXBXbX#X` W ) -.R.2 8 a P bX:XwX5.{ } } ! < ; 3 > b.mXkX:XpX.X,XMXl.o : > 7 ",
". > @ P :XyXaXD.%.%.%.&.&XpXwXkXbX:X&XtXyXnXpXnXV.X...X.I u 1 < f =XHXmXJXz.]. .[.R.a s p S MXoX#XZ.! /.W W ; # = > n.dXwXbXwXwXnXdXq.+ = > 2 ",
"G F F q.mXlXsXD.N b c N &XbX@XpXwX,X*XyX5.c.P.V.}.C Q.Q.V F P F {.AXBXVXpX@.Q.Q.E.Q.t.t.r.w.wXeXpX=Xc.a.z.s.F L F F A.pXwXbXlXkXtXlXb.9.L D 0.",
"hXdXuXlXdXXXlXC.> > # $ XXNXwX.X9X*XkXlXz._.'.].Q.; s 2 K IXBXdXMXPXFXFXPXj a 2 a l.UXnXaXbXyXoXkXpXbXaX#XnXnXmXnXNXyXbX*XbXpXpXoXmXMXnXnXsX0X",
"$XlXpXbX+X*XBX4.X 1 ; 1 OXBXoXlXbX:XwXpXc.).-.*.Q.g 8 s r FXkXlX-XNXcXFXMXK 2 g 2 y.dX&XwXA.+XNXmXwX=XlXoXwXpX*X@XlXyXbXcXbXwXlX:XwXXXbXoXpXpX",
"gXwXbXBXpXbXaX8.X > < = OX>XbXkXoXoXwXmXc._.[.].Q.p f a j HXcXJXaXoXcXNXMXK f h u ,.dX*XXX&XnXbX*XpXbXaXnXsXwXzXpXlXMXwXkXpXpXBXBXmXlXbXpXpXwX",
"7X8X*XcXwXwXwXD.6 7 g 0 A..XpX*X@X:XbXBXc.).-.%.I q e r t.GXbXBXBX-XoXlXlX9.0 6 q q.bX+XpXpXpXqXpX*XH.S.A.I.oX,XtX8XmXwXzXlXwXbX.XtXqXZ.S.S.U.",
"7XcXbXbXpXtXnXwXbXaX+XpXbXNX*XlXoX*XlXBXc.).@.W i.aX&XpXzXIXIXVXDXBX.X*X:X:XtXsXpXcXbX X*X:XoXcXpX6...#.Y $.xX>XzXkX:XaXwXwXzXlXnXbXG.[ ..E $.",
"aXlXpXlXNX9X*XlXwXwXbXtXkXwXXX*X*XlXmXIXc.'.@.Q +.#X-X.X9X<XNXCXCXNXwXoXlXwXwX*X,XoXbXbXwXlXbXwXNX&XW { E ^.xXpXpXpX>XpXbX#XnX#XrXtXZ.! ..' O."
};
