/* XPM */
static char *xpm_[] = {
/* columns rows colors chars-per-pixel */
"32 32 182 2 ",
"   c #1E1514",
".  c #1F1518",
"X  c #1F1915",
"o  c #221615",
"O  c #231916",
"+  c #231618",
"@  c #241A19",
"#  c #2A1E1C",
"$  c #281D16",
"%  c #292216",
"&  c #24221B",
"*  c #2B241A",
"=  c #2A2717",
"-  c #23381E",
";  c #353616",
":  c #261D29",
">  c #2A1F21",
",  c #2D2423",
"<  c #29252C",
"1  c #312424",
"2  c #322B24",
"3  c #372D2C",
"4  c #3A302F",
"5  c #29263C",
"6  c #282638",
"7  c #362E3A",
"8  c #3D3434",
"9  c #402F2F",
"0  c #40342D",
"q  c #433933",
"w  c #433A3B",
"e  c #42373A",
"r  c #2E4B2D",
"t  c #22662C",
"y  c #25782C",
"u  c #474827",
"i  c #4D4736",
"p  c #535829",
"a  c #292943",
"s  c #2A2947",
"d  c #333040",
"f  c #2B2E54",
"g  c #2A2F5A",
"h  c #272A51",
"j  c #2B3155",
"k  c #2C315B",
"l  c #2D3261",
"z  c #2D3975",
"x  c #343F79",
"c  c #3E406B",
"v  c #4B4344",
"b  c #4D4647",
"n  c #544D4B",
"m  c #56504E",
"M  c #4D4C5F",
"N  c #554E50",
"B  c #5D5754",
"V  c #6C5D53",
"C  c #6A634A",
"Z  c #555564",
"A  c #716A6B",
"S  c #726F71",
"D  c #7D797B",
"F  c #64687F",
"G  c #827979",
"H  c #837679",
"J  c #258230",
"K  c #1FAC37",
"L  c #23AC38",
"P  c #6F901F",
"I  c #678E1D",
"U  c #6B8427",
"Y  c #75B522",
"T  c #8FBF21",
"R  c #93C71F",
"E  c #958076",
"W  c #2F3D84",
"Q  c #333F86",
"!  c #33438D",
"~  c #3F4C8F",
"^  c #3A4A93",
"/  c #33469D",
"(  c #35499D",
")  c #394C9E",
"_  c #3D529D",
"`  c #3346A1",
"'  c #3449A1",
"]  c #3B4DA3",
"[  c #3D52A2",
"{  c #474F80",
"}  c #404F96",
"|  c #41529D",
" . c #45589E",
".. c #7E7F91",
"X. c #656E96",
"o. c #4354A4",
"O. c #4E5EA4",
"+. c #4E5EA8",
"@. c #414DA6",
"#. c #4E60A4",
"$. c #5463A5",
"%. c #5962A3",
"&. c #5866A9",
"*. c #5B69A7",
"=. c #5969B0",
"-. c #666FA3",
";. c #6472AB",
":. c #6A76AC",
">. c #6D7CAC",
",. c #6770A6",
"<. c #747EAF",
"1. c #6D7CB0",
"2. c #727FB0",
"3. c #857D91",
"4. c #7582AE",
"5. c #7A84AD",
"6. c #7F87A5",
"7. c #7E88B9",
"8. c #868589",
"9. c #998D8F",
"0. c #9A9799",
"q. c #9B9695",
"w. c #A38D82",
"e. c #A19E9E",
"r. c #A2A09D",
"t. c #9993AD",
"y. c #838CB3",
"u. c #8A93B4",
"i. c #959BB7",
"p. c #989EB7",
"a. c #989EB9",
"s. c #A195AD",
"d. c #9BA1BA",
"f. c #A6A4A5",
"g. c #A8A6A6",
"h. c #A4AABC",
"j. c #B7A5B1",
"k. c #B5B5B4",
"l. c #B4B4BC",
"z. c #BCBDBD",
"x. c #BAB6B6",
"c. c #B4A7AD",
"v. c #CAB19C",
"b. c #C7B099",
"n. c #C4AD93",
"m. c #CFB7A3",
"M. c #CDBCB8",
"N. c #C9BAB6",
"B. c #D4BDB5",
"V. c #C1C0BC",
"C. c #DDC9BB",
"Z. c #DAC8B7",
"A. c #EFCFB3",
"S. c #EECFB9",
"D. c #E2CBBB",
"F. c #F0CEB7",
"G. c #EDD0B5",
"H. c #EED2BA",
"J. c #F4D3B5",
"K. c #F8D5B7",
"L. c #F5D3B9",
"P. c #F9D4B9",
"I. c #818CC1",
"U. c #ABACC0",
"Y. c #B1B3C1",
"T. c #BCBDC2",
"R. c #B6BBD3",
"E. c #C1BEC1",
"W. c #BEC1C3",
"Q. c #BDC4DD",
"!. c #C3C2C3",
"~. c #C3C3C9",
"^. c #D8D7D5",
"/. c #E5D0C2",
"(. c #E1E0DF",
"). c #CFD2E4",
"_. c #DFDFE0",
"`. c #DFE1ED",
"'. c #EFEFED",
"]. c #E1E4E9",
"[. c #FBFBFA",
"{. c #A5CD47",
/* pixels */
"{.{.{.{.{.{.{.{.{.{.{.{.{.{.{.{.{.{.{.{.{.{.{.{.{.{.{.{.{.{.{.{.",
"{.{.{.{.{.{.{.{.{.{.{.{.{.& $ O r {.{.{.{.{.{.{.{.{.{.{.{.{.{.{.",
"{.{.{.{.{.{.{.{.{.{.{.{.{.< < : r {.y {.{.{.{.{.{.{.{.{.{.{.{.{.",
"{.{.{.{.{.= o {.{.; . + , ) ] o.^ 1 & 1 u {.{.O {.{.{.{.{.{.{.{.",
"{.{.{.{.{.u w {.{.< < 6 5 @.o.o.^ d 7 d r {.i e p {.{.{.{.{.{.{.",
"{.{.K t   G ~.v o W ' ' ( ) ( ( ] o._ ( l # D !.N o o   {.{.{.{.",
"{.{.{.- @ D !.Z s ! ' ;.:.y.7.I.I.1.*./ z s 8.!.n + n B u {.{.{.",
"{.{.{.{.+ H !.$.( ( ( l.~.[.[.[.'.z.p./ / / y.~.n o r.W.4 % {.{.",
"{.{.{.{.o D ~.%.( ;.4.T.!.].(._.^.~.l.>.%.) u.~.N o r.z.4 % {.{.",
"{.{.{.{.+ D !.%./ h.!.T.V.T.E.W.z.!.~.!.u.[ y.~.n # f.z.4 & {.{.",
"{.{.{.{.+ G !.p.u.M./.>.<.D.D.D.N.:.u./.x.i.h.!.B , g.~.8 % {.{.",
"{.{.{.{.o D ~.E.!.D.S.o.] L.K.J.N./ ,.J.Z.z.!.~.V + e.!.e & {.{.",
"{.{.{.{.J r b f.z.H.G. .) J.J.L.N./ -.J.D.N.8.n 2 o 0.W.w * {.{.",
"{.{.{.{.L t O q.!.H.G.| ' L.P.P.N./ -.J.D.!.S , @ X f.~.w = {.{.",
"{.{.{.{.- & O 9 8 m.L.B.N.J.K.L.S.M.B.J.w.w 3 1 , # g.W.8 * {.{.",
"{.{.{.{.@ # # # + b.L.H.A.L.K.L.F.A.J.J.H # # 1 2 , g.T.8 * {.{.",
"{.{.X h / 6.k.k.k.E.E.O.O.V.V.!.h.| ,.!.z.x.l.k.%.^ _ _ ! ^ 1 2 ",
"{.{.$ k ' y.W.!.!.z.T.o.( W.~.!.h.' &.!.T.W.z.T.;.) [ [ @.| 1 , ",
"o V J.t.( ' ' d.!.$.' / [ [.[.[.)./ ' ) <.E.5.( c.F.L.H.i 2 {.{.",
"o V J.t.( ! ! u.Y.O.( ' ) `.`.`.R./ / / :.l.>./ c.F.J.H.q * {.{.",
"o V L.s./ f o W ( ( ` ' ' ' ) ) ' ' / ( ' ) ( ^ j.J.L.A.0 * {.{.",
"; C v.3.W a O Z +.O.O.O.#.=.=.=.=.#.$.+.#.O.} ! 9.v.v.n.q o {.{.",
"R {.  o O @ o 0.!.!.!.~.~.[.[.[.'.E.!.~.!.!.A + o o o   {.{.{.{.",
"Y {.; {.{.$ o 8.p.a.p.p.d.Q.Q.Q.R.a.a.a.p.a.B + = {.{.{.{.{.{.{.",
"L {.{.{.{.% o z ` ` / / / / / / / / ` / / / k o {.{.{.{.{.{.{.{.",
"{.{.{.{.{.= o F 4.4.>.( ` ' ( ` ' ( o.4.4.4.M + {.{.{.{.{.{.{.{.",
"{.{.{.{.O + o 0.~.N.T.[ ( ' ' ' ' ( =.W.W.W.A o {.{.{.{.{.{.{.{.",
"{.{.$ s k k k X.4.Y.z.y.5.k j j c 5.5.5.5.5.M O {.{.{.{.{.{.{.{.",
"{.{.o j ' ( ' ' / h.W.!.z.$ O O w W.d.' ( ' k @ {.{.{.{.{.{.{.{.",
"{.{.o : 5 a 6 5 s v b b n + * I U b v 5 5 5 : o {.{.{.{.{.{.{.{.",
"{.{.o o X o . X . o o o o o % T P + o + o X + o {.{.{.{.{.{.{.{.",
"{.{.{.{.{.{.{.{.{.{.{.{.t {.{.{.{.{.{.{.{.{.{.{.{.{.{.{.{.{.{.{."
};
