/* XPM */
static char *_2d3612b794046a69c85a3999134055byQjLQvM5wLpURgiV[] = {
/* columns rows colors chars-per-pixel */
"72 71 234 2 ",
"   c None",
".  c #5D3A01",
"X  c #5E3401",
"o  c #6C2C0A",
"O  c #672E04",
"+  c #663502",
"@  c #6C3504",
"#  c #653A01",
"$  c #6B3A05",
"%  c #6C350A",
"&  c #6D3A0B",
"*  c #663609",
"=  c #723402",
"-  c #713D0D",
";  c #743809",
":  c #6D3810",
">  c #793A16",
",  c #732E00",
"<  c #753222",
"1  c #29561B",
"2  c #02651B",
"3  c #045D2D",
"4  c #00552C",
"5  c #025E32",
"6  c #025D3A",
"7  c #075936",
"8  c #265624",
"9  c #016426",
"0  c #016925",
"q  c #01642C",
"w  c #09652C",
"e  c #016B2C",
"r  c #0A682C",
"t  c #11692E",
"y  c #03742D",
"u  c #0B752A",
"i  c #177A29",
"p  c #026534",
"a  c #0A6534",
"s  c #026A34",
"d  c #0A6B35",
"f  c #02653B",
"g  c #0B623B",
"h  c #026A39",
"j  c #0B6A3B",
"k  c #146A36",
"l  c #027233",
"z  c #0C7433",
"x  c #057A33",
"c  c #0C7B34",
"v  c #04733C",
"b  c #097239",
"n  c #0C7D3A",
"m  c #067938",
"M  c #197836",
"N  c #396736",
"B  c #396835",
"V  c #396836",
"C  c #257837",
"Z  c #2F7A2C",
"A  c #5F4400",
"S  c #6B4206",
"D  c #69420A",
"F  c #74420C",
"G  c #754409",
"H  c #744212",
"J  c #784412",
"K  c #6C4F0C",
"L  c #085E4E",
"P  c #036542",
"I  c #0A6341",
"U  c #026A42",
"Y  c #0C6B43",
"T  c #066849",
"R  c #087443",
"E  c #167544",
"W  c #096949",
"Q  c #257D45",
"!  c #8E5B2D",
"~  c #885F21",
"^  c #915E2E",
"/  c #9C592D",
"(  c #935F32",
")  c #9B5B36",
"_  c #8D5B36",
"`  c #A15E33",
"'  c #8D6233",
"]  c #956134",
"[  c #996335",
"{  c #97613B",
"}  c #986638",
"|  c #A36136",
" . c #A3623A",
".. c #9F5C42",
"X. c #A75943",
"o. c #A06140",
"O. c #18800D",
"+. c #328A1D",
"@. c #0B852D",
"#. c #13892D",
"$. c #1B9C2C",
"%. c #199E27",
"&. c #0C8335",
"*. c #0E8B33",
"=. c #0E8239",
"-. c #0B8736",
";. c #128535",
":. c #138C33",
">. c #12833A",
",. c #178E3B",
"<. c #1B9335",
"1. c #1C9C34",
"2. c #1A933B",
"3. c #1C9B3A",
"4. c #149736",
"5. c #0E933A",
"6. c #3B8C24",
"7. c #368B2C",
"8. c #38862B",
"9. c #3A912B",
"0. c #288832",
"q. c #388A35",
"w. c #229D3C",
"e. c #249E39",
"r. c #298727",
"t. c #1DAC2C",
"y. c #1AA82C",
"u. c #1DB32E",
"i. c #1CA433",
"p. c #13AB33",
"a. c #1DAB34",
"s. c #1EA43A",
"d. c #1EAB3A",
"f. c #12A731",
"g. c #1EB235",
"h. c #1EB23B",
"j. c #15B537",
"k. c #23AB2D",
"l. c #28AD2F",
"z. c #23AB29",
"x. c #23B12D",
"c. c #27B42A",
"v. c #23A534",
"b. c #23AC35",
"n. c #29AC35",
"m. c #23A53B",
"M. c #29A43A",
"N. c #23AC3A",
"B. c #29AD3B",
"V. c #2BA636",
"C. c #32AC3B",
"Z. c #23B234",
"A. c #29B234",
"S. c #24B13B",
"D. c #2AB13B",
"F. c #27B93A",
"G. c #38B43C",
"H. c #429729",
"J. c #4F9630",
"K. c #0C8543",
"L. c #1B9745",
"P. c #168548",
"I. c #3B8A4D",
"U. c #229B42",
"Y. c #2A974D",
"T. c #2C8C4E",
"R. c #1BA846",
"E. c #23A344",
"W. c #2AA442",
"Q. c #24AC42",
"!. c #2AAC43",
"~. c #28AC49",
"^. c #3CAE43",
"/. c #35AD46",
"(. c #25B142",
"). c #2CB342",
"_. c #2CB64B",
"`. c #34B243",
"'. c #3AB342",
"]. c #38B948",
"[. c #4D9B54",
"{. c #559E57",
"}. c #468F4A",
"|. c #4CB84F",
" X c #46B34A",
".X c #52B64E",
"XX c #52B94E",
"oX c #4DBA52",
"OX c #59B855",
"+X c #4FA753",
"@X c #66BA57",
"#X c #72B05D",
"$X c #5DA269",
"%X c #67AC65",
"&X c #6CB266",
"*X c #73B266",
"=X c #7DBD6B",
"-X c #73BA68",
";X c #76B673",
":X c #54C85C",
">X c #65C25E",
",X c #77C55F",
"<X c #7AC569",
"1X c #81BE6B",
"2X c #87BD6A",
"3X c #8AB974",
"4X c #91BD70",
"5X c #88CA5E",
"6X c #83C36C",
"7X c #8CC46D",
"8X c #8BCA6D",
"9X c #85C667",
"0X c #99C56C",
"qX c #93CB6B",
"wX c #95C567",
"eX c #96D66D",
"rX c #85C672",
"tX c #8CC572",
"yX c #85C971",
"uX c #8DCA74",
"iX c #8DC67D",
"pX c #8ECB79",
"aX c #84CA7B",
"sX c #93C473",
"dX c #9AC474",
"fX c #93CB73",
"gX c #95C879",
"hX c #93CB79",
"jX c #9BCB7A",
"kX c #98C879",
"lX c #96D377",
"zX c #87D172",
"xX c #94C683",
"cX c #8DD082",
/* pixels */
"                                                  z p g U e h p p p p p s p p p e f e h h e                                                     ",
"                                                  E s 9 f p p j h h h h h s s s f f a f 6 Y                                                     ",
"                                                  r h m U s s h a a a a a a a a h e s s s a                                                     ",
"                                                  M 5 p 6 a s 5 f f f f f f f f p p f f p t                                                     ",
"                                          M M M C %X-X*X*X&X&X-X*X*X*X*X*X*X*X*X;X;X#X*X*X&Xi C C i                                             ",
"                                          3 7 3 j <XqXdX0X8XhXqXfXfXfXfXfXfXfXfX5XfXqXjXhXrXu s W 3                                             ",
"                                          U Y p b =XaXxX4XrXiXiXtXtXtXtXtXtXtXtX8XtX6XrXaX3XE 6 s 9                                             ",
"                                          p 9 9 w 1XyX9X0XhX7XfXgXgXgXgXgXgXgXgXxXkXgXfXfXxXe a f I                                             ",
"                                  8.8.6.9.{.$X[.+XrXtXtXdX:X X.X.X.X.X|.|.|.XXXXoX|.|.oXoX Xe.#.:.,.0.6.9.6.6.q.7.H.                            ",
"                          5 f f f P P p M aXlXfXgXtXrXhXsX`.p.j.a.i.i.i.i.i.a.i.b.b.v.i.a.d.d.Q.u.S.c f f P P p s 4 6.                          ",
"                          s R h j q p f E pXwX0XjX7XyXuX7X^.M.B.M.M.M.N.M.M.M.M.b.b.b.b.b.N.N.N.N.F.e P s j P e l L q.                          ",
"                        H.5 6 w p w w 5 M aX8XtX7XuXjXdXfX Xb.N.N.N.N.N.N.N.N.N.N.b.n.n.n.n.v.v.!.D.l I e q 6 0 e 6 9.                          ",
"                        }.}.I.}.T.I.I.I.[.uXsXhX8X>XOX@XOX).f.p.N.N.N.N.N.N.N.b.d.N.S.N.N.b.N.D.i.d.:.n @.-.P.-.@.c 0.                          ",
"                C f P 7 [.eXeXuXeXfXfXlXeXsX7XpX6XB.f.j.b.b.B.C.b.b.b.b.b.b.b.b.a.d.N.N.N.d.a.a.Z.g.B.n.Z.A.B.b.C.].L.4 f 3 M                   ",
"                C s l 6 [.pX7XhX9XsXsX9X9X8XyX<X7X).N.S.M.M.N.a.N.N.N.N.N.N.N.N.S.N.b.v.N.B.S.S.c.t.v.!.d.b.v.b.N.t.5.b h q i                   ",
"                Z q e 7 [.lXsXsXuXhXhXiXuXkXdXjX6X).V.v.D.a.a.S.N.N.N.N.N.N.N.N.b.b.N.N.N.b.b.b.!.(.N.B.t.g.m.Q.N.Z.*.q 6 I M                   ",
"                T.Q Q M {.jX6XfX9X>X<X-X>X,X<X<X:X`.v.N.N.N.S.a.Z.i.2.w.3.3.Z.d.N.s.n.N.a.x.L.3.w.L.a.u.m.m.(.l.n.E.3.y n v O.                  ",
"        9 h j 7 &XjX0XuXpX4X7X0X@XN.N.N.a.b.v.M.C.M.b.S.a.b.S.S.m.;.p p p =.B.!.S.N.Z.N.N.y.l 2 s h 4.Z.A.k.a.k.n.B.A.v.n._.U.g T p a           ",
"        E 9 j f @XjXsXyXyX8XyXiX@Xa.i.N.N.B.M.h.M.b.N.S.b.a.a.b.S.;.p f s -.x.t.N.b.b.b.!.V.U a e e 1.b.N.N.R.N.!.i.t.Q.d.a.v.q q d a           ",
"        Y a g 2 %XcXuXrXtXxXpXhX>Xa.Z.B.N.B.v.j.B.N.a.a.N.N.N.a.B.;.p g f =.A.n.N.b.Z.b.N.v.h p s h L.Q.m.S.a.b.a.S.a.(.N.x.v.f j s a           ",
"        z U R v &XcXyXlX7X9X7X7XOXi.d.v.p.h.l.x.b.N.N.a.N.N.N.S.N.;.s s s -.N.N.!.v.b.b.a.i.x e h s 4.S.n.c.i.M.!.Q.s.t.a.B.U.v h 0 M           ",
"j h v k =X2X7X=XwXsX4X7XXXZ.b._.T.s h j x R.W.W.b.N.N.b.b.b.b.d.F.N.m.M.s.d.Z.d.!.k.N.b.a.Z.R.E.B.m.n.Z.m.b.-.j s 9 ;.A.N.Q.N.a.N.a.R.z s u z j ",
"q q f P   fXhXqXpX6XlXfXoXd.1.D.4.9 p p u d.Z.b.b.b.b.N.N.B.N.N.n.v.!.n.b.N.k.W.b.A.!.N.N.Z.N.D.x.B.k.d.!.).:.3 d p P.A.a.n.N.h.b.n.N.a a 5 s f ",
"p Y a y 4XpX9XtXsXtXrXhXOXi.G.g.2.w T U u N.b.b.b.N.N.N.b.N.N.d.Z.a.(.Z.a.h.t.!.a.A.s.m.B.b.b.n.a.!.n.d.N.n.@.p s p n b.Q.n.b.x.N.N.a.s v f s s ",
"p h s s 1XpX7XuX8XhXdXsXoXp.N.`.:.y U p c W.v.N.!.b.N.b.b.N.n.N.N.N.b.N.b.b.b.N.N.N.N.b.b.N.N.N.d.s.B.b.Q.N.K.e p 0 @.m.B.N.N.b.b.Q.N.s a s p h ",
"p h s s 1XhX7XuX|.`.^. XB.d.N.d.v.1.w.<.v.D.k.Z.N.b.N.b.b.N.b.N.N.N.b.N.b.b.N.N.N.N.N.b.b.b.N.N.a.a.B.b.N.x.m.$.Y.3.m.B.N.a.b.b.b.Q.N.s a s p h ",
"p h s s 1XhXtXpX'.p.p.a.N.B.M.N.N.b.A.n.b.b.b.N.Q.b.b.a.N.E.N.N.N.N.N.N.N.N.N.N.N.N.N.b.b.N.N.N.b.N.N.b.a.x.B.D.Q.N.d.b.a.N.N.b.b.Q.N.s a s p h ",
"p h s s 1XpXtXpX XN.S.B.N.N.M.N.N.N.b.a.d.d.Q.Q.b.b.k.b.N.d.b.b.N.N.N.N.N.N.N.N.N.N.N.b.b.N.N.N.b.v.b.b.b.a.s.s.a.a.g.g.d.N.N.b.b.Q.N.s a s p h ",
"p h s s 1XpXtXpX^.N.N.N.d.h.N.b.n.b.d.N.S.b.b.N.Z.N.n.D.N.N.A.n.b.N.N.N.N.N.N.b.N.N.N.b.b.N.N.N.n.n.b.D.).N.N.S.B.N.b.N.N.N.b.b.b.Q.N.s a s p h ",
"p h s s 1XpXtXpX^.N.a.N.d.d.B.N.k.b.N.Q.b.k.n.b.v.>.&.&.-.s.N.N.b.N.N.N.N.N.b.b.N.N.N.b.b.N.N.N.b.N.*.=.=.&.%.Z.M.m.v.N.N.N.b.Z.b.Q.N.s a s p h ",
"p h s s 1XpXtXuX'.d.S.N.v.N.M.B.N.N.B.N.N.N.N.N.m.U p p h 3.Q.E.b.b.N.N.N.N.b.b.N.N.N.b.b.N.N.N.B.~.x f p p #.S.N.N.b.N.N.N.N.b.b.Q.N.s a s p h ",
"p h s s =XpXtXuX].i.S.N.d.(.a.N.Q.b.l.k.b.Q.N.a.k.h j a s %.n.N.b.b.N.N.N.N.N.N.N.N.N.b.b.N.N.N.t.B.y p d P :.~.d.S.b.b.b.N.N.N.b.Q.N.s a s p h ",
"h h s d =XpX7XfX Xa.N.N.g.D.S.h.!.b.b.a.N.Z.b.S.N.q P 6 q 3.n.N.b.Q.N.b.b.N.D.D.N.S.N.a.b.b.N.(.k.!.x p f p ,.~.a.b.N.B.b.b.N.N.N.D.M.s p p e U ",
"p p p s =XuX7XfX'.i.N.N.4.<.<.5.4.b.S.(.N.b.a.a.b.;.>.;.@.i.k.N.b.N.N.b.b.3.:.:.:.4.N.b.b.N.N.N.t.N.:.;.>.@.1.N.a.N.b.v.a.b.N.N.a.b.M.s h p 9 h ",
"h h s d 6XpXtXhX'.d.n.b.-.9 q f &.b.b.Q.b.b.N.S.Z.!.M.n.N.a.F.!.k.l.N.N.B.,.f p q y m.b.N.N.N.b.S.D.N.B.B.b.b.S.N.S.B.N.N.N.b.n.Z.a.N.s h f q f ",
"p p p s =XpXtXhX/.R.n.B.K.5 w g =.B.v.Q.k.b.Q.b.d.N.k.b.S.d.N.m.!.b.N.d.A.2.f a f l !.b.b.N.N.b.N.d.b.b.b.N.N.a.N.N.b.N.N.N.b.l.N.d.!.s s s 0 e ",
"p p p s =XpXtXhXG.d.z.n.K.p s P x n.b.Q.k.b.N.b.Q.b.b.N.N.Q.N.b.N.k.N.d.A.,.f a f y !.a.N.N.N.b.B.b.N.N.d.N.N.N.N.N.b.b.N.N.N.B.Z.N.B.l s f s f ",
"j j s d 6XpXtXhXG.a.z.n.5.x x v :.b.b.Q.b.n.N.N.N.k.N.N.a.N.b.k.b.k.N.b.x.3.m c m @.N.b.S.N.b.b.k.k.b.N.a.N.b.b.N.N.N.N.N.N.m.3.$.1.<.l s P f f ",
"s p p s =XuX7XtX/.R.N.).N.n.b.N.!.D.b.d.N.N.b.a.b.b.S.Q.b.n.b.x.~.E.Q.b.k.n.N.n.!.N.S.b.b.b.N.D.b.b.b.b.b.b.b.b.b.b.N.N.b.N.2.y s h s p 9 p e e ",
"j j p d 6XpXtXsX'.a.N.N.a.n.N.N.b.b.Z.a.Q.N.b.N.a.Z.d.N.A.b.N.N.k.N.N.D.b.N.N.i.l.n.b.b.b.b.b.N.d.Q.N.b.b.b.N.N.Z.N.Q.N.t.D.U.s j f q j s f p h ",
"s h e U ,XkXuXzX`.v.B.b.b.b.b.b.b.b.D.m.M.l.b.(.b.N.N.N.N.N.N.d.b.N.N.N.N.N.N.N.d.N.b.Z.b.b.N.d.N.N.b.S.b.N.N.M.Z.N.n.b.d.S.1.e s I l p s e p f ",
"l Y a t ;XrX2X2X`.N.N.d.N.Q.Q.~.M.v.B.N.n.y.t.i.m.n.b.a.b.A.b.b.N.N.N.N.N.N.N.N.b.b.s.M.M.m.Z.b.N.N.b.b.b.b.b.b.d.N.M.M.m.N.2.h e 6 p t b d j h ",
"        k v R j e.N.N.b.b.b.k.z.S.d.S.N.3.y d e l m.N.Q.N.N.!.N.b.N.N.N.N.N.N.N.N.s.l s s l m.N.b.b.b.b.S.N.Z.b.h.N.,.h h l s p f g k           ",
"        M e 9 a i.B.a.N.a.N.N.N.N.a.t.Z.U.s j q U V.n.d.Z.b.N.b.N.N.N.N.N.N.N.b.N.v.p f f h M.N.b.b.N.b.b.b.b.a.g.A.<.q q 9 p s s a j           ",
"        d p h f $.B.a.a.a.a.N.N.N.b.t.A.E.p f p U V.A.N.Z.b.N.n.N.b.N.N.N.N.N.b.S.v.p f f h M.N.b.b.N.b.b.b.N.N.a.D.L.f j f f f h a f           ",
"        u j f p w.~.~.!.B.B.n.b.N.S.t.S.L.s f p l v.N.Q.N.b.!.N.b.b.N.N.N.N.N.N.Q.1.s e q l m.Q.b.N.N.b.b.N.!.E.k.n.<.p f s e e p a a           ",
"        c q s h c y x y l m m m :.M.k.b.N.i.i.i.s.b.b.a.b.b.b.b.b.N.N.N.N.b.b.b.a.a.1.1.1.1.b.a.n.N.N.a.a.m.<.c m n y e f s p f s h h           ",
"        v I f p f p j p p p p q -.!.N.N.N.D.b.N.b.N.(.N.N.N.N.N.b.b.N.N.N.N.b.b.N.N.b.S.b.b.N.N.b.N.a.Z.Z.B.;.q p f q h P j e j a p e           ",
"        R s s s d p h U a e s f n Z.p.N.V.M.a.d.m.N.N.N.N.N.N.b.N.N.N.N.N.N.N.N.d.N.N.a.N.N.a.N.n.d.~./.i.(.&.p s f f f s P j e h s d           ",
"        k 3 g p 6 f f 3 5 h s p ;.A.h.S.Z.S.Z.Z.Z.Z.Z.Z.Z.Z.Z.Z.Z.Z.Z.Z.Z.Z.Z.Z.Z.Z.Z.Z.Z.Z.Z.Z.D.h.x.z.c.F.;.s s e j g q s s 0 7 q k           ",
"                        0.U q f d ;.-.&.*.-.;.>.>.>.=.>.=.c >.=.=.=.=.=.=.=.=.=.&.>.c >.>.c >.&.M =.;.u =.=.j 5 p h M       J.  J.  J.          ",
"                        H.f 9 h f s f f s p p 6 f p p f p p f p p p p p p p p p p p p f p 5 f p 5 p f f f f j s j P q.                          ",
"                        6.f w p p f I j s h s f s s s s s s s s s s s s s s s s s s s s p p s s s h p h s j h h g q q.                          ",
"                        9.6 a f p f 5 0 e j s s p h h p p p j h f h h h h h h h s p f f f j s s s a p p f 7 5 f a q q.                          ",
"                          8.7.q.7.7.r.+.8.8 1 8 8 V V V V N N N N N N N V V V V V V N N V V 8 1 8 1 Z 9.7.8.7.9.+.r.                            ",
"                                          $ , ; ; / ` ` | ` / ` ` ` ` ` ` ` ` ` | /  .` | / ; = < @                                             ",
"                                          S # $ & ! ( ] [ [ ( ( ( ( ( ( ( ( ( ( ] ( [ [ ( ! H $ . .                                             ",
"                                          + * % & ] ] ] ( ] ] [ ] ( [ [ ( ( ( ( [ ] ( ( [ ^ & + : *                                             ",
"                                          % > : * ( ] ] ] [ ] [ [ [ [ [ [ [ ( ( ] [ ( [ } ! & + > o                                             ",
"                                          # # . % ( ] ^ [ [ ( ( [ [ [ [ [ [ [ ( ( [ [ [ [ ! & $ $ #                                             ",
"                                          & $ $ - ] ] ( ( ( ( [ [ [ [ ( [ [ [ [ ( [ ( ( [ ^ - & + *                                             ",
"                                          o o % % ! ] } ( ( ( [ [ [ [ ( [ [ [ [ [ [ ( ] } ^ & + > O                                             ",
"                                          S S S H ! ( } [ ( [ ( [ [ ( ( ( ( [ ( ( ( [ [ [ ] J - S *                                             ",
"                                  A > & K ( ! ) ^ } ^ ] ( ( [ ( [ [ ( ( ( ( ( ( [ ( [ ] ( { ! ( ~ ..G $ J A                                     ",
"                                  o % : D ^ [ [ [ [ ] ] ] ] ] ] { ( [ { ( ( [ [ { ( [ { ( [ [ ] X.^ H # @ o                                     ",
"                                  X G + S  .' ' [ [ ] ] ( ( ( ( [ ( [ [ [ ( [ [ [ ( ] ] ] ] [ ] _ } & @ ; +                                     ",
"                                  X # O G X.) o.{ { { { { { { { [ ] [ [ ] ] [ [ [ [ ] ] [ [ ] [ ) | - * : X                                     ",
"                                          H D S F F F F F F F F F - F H H H H H H H H - J F - H D S                                             ",
"                                          . + = # # # # # # # # * $ $ $ $ $ * * * % * * % * + * : +                                             ",
"                                          & : % : : : : & & & & $ & & $ & & $ & & & & & & & $ % $ @                                             ",
"                                          @ @ = @ @ = = = = @ @ + @ % + @ @ @ = @ @ @ @ @ @ @ @ @ =                                             "
};
