/* XPM */
static char *xpm_[] = {
/* columns rows colors chars-per-pixel */
"32 32 136 2 ",
"   c #6C3606",
".  c #663807",
"X  c #6B3906",
"o  c #6E3609",
"O  c #6B3909",
"+  c #713E0F",
"@  c #733F10",
"#  c #2E5422",
"$  c #2C5C22",
"%  c #375C2A",
"&  c #186F2E",
"*  c #1F7C26",
"=  c #036635",
"-  c #086635",
";  c #036935",
":  c #0B6D34",
">  c #036639",
",  c #056939",
"<  c #0A6939",
"1  c #106D36",
"2  c #097534",
"3  c #0B7B36",
"4  c #0A7839",
"5  c #177632",
"6  c #157F35",
"7  c #18743D",
"8  c #1E783D",
"9  c #24732C",
"0  c #207D28",
"q  c #267C31",
"w  c #207738",
"e  c #247D3D",
"r  c #6F410F",
"t  c #72410D",
"y  c #734112",
"u  c #7D4A1A",
"i  c #416536",
"p  c #1A7541",
"a  c #1E7C40",
"s  c #207C41",
"d  c #80531D",
"f  c #855322",
"g  c #895425",
"h  c #8F5A2D",
"j  c #91582C",
"k  c #945F33",
"l  c #956134",
"z  c #996335",
"x  c #0C8234",
"c  c #0E8238",
"v  c #118335",
"b  c #138A36",
"n  c #138439",
"m  c #158B39",
"M  c #179336",
"N  c #189637",
"B  c #1B9B36",
"V  c #18943A",
"C  c #179D38",
"Z  c #1D9C3A",
"A  c #26802D",
"S  c #2C842D",
"D  c #209F3C",
"F  c #1EA535",
"G  c #1EA339",
"H  c #22A636",
"J  c #23AC36",
"K  c #22A53A",
"L  c #23AC39",
"P  c #29AD3B",
"I  c #24B034",
"U  c #2F8843",
"Y  c #308747",
"T  c #3E8D41",
"R  c #348649",
"E  c #2A9543",
"W  c #3C9A4C",
"Q  c #30AF40",
"!  c #3EB247",
"~  c #42954E",
"^  c #499653",
"/  c #4B9A57",
"(  c #47B64A",
")  c #56B954",
"_  c #5BBC54",
"`  c #5BBC58",
"'  c #5CBA5A",
"]  c #61AB5E",
"[  c #64BC5A",
"{  c #6ABF5D",
"}  c #69BF5F",
"|  c #68BB5E",
" . c #68AC61",
".. c #6CBF63",
"X. c #6FB668",
"o. c #7ABC6A",
"O. c #6FC15E",
"+. c #6AC05E",
"@. c #6AC060",
"#. c #6CC160",
"$. c #6BC060",
"%. c #72C365",
"&. c #75C264",
"*. c #77C466",
"=. c #7AC167",
"-. c #79C169",
";. c #78C268",
":. c #7AC269",
">. c #7DC16B",
",. c #81BF6E",
"<. c #82C26E",
"1. c #86C56E",
"2. c #87C66F",
"3. c #89C26F",
"4. c #8BC66E",
"5. c #8EC56F",
"6. c #8AC672",
"7. c #8CC671",
"8. c #8FC772",
"9. c #8BC774",
"0. c #8DC675",
"q. c #8EC775",
"w. c #8BC773",
"e. c #89C873",
"r. c #8EC870",
"t. c #8DC873",
"y. c #8EC873",
"u. c #8CC875",
"i. c #8CC977",
"p. c #8CC875",
"a. c #90C171",
"s. c #91C972",
"d. c #96C973",
"f. c #91CA78",
"g. c #A5CD47",
"h. c black",
/* pixels */
"g.g.g.g.g.g.g.g.g.g.g.: > ; = = = = > > g.g.g.g.g.g.g.g.g.g.g.g.",
"g.g.g.g.g.g.g.g.g.g.g.8 p 7 p p p p 7 p w g.g.g.g.g.g.g.g.g.g.g.",
"g.g.g.g.g.g.g.g.g.- - >.8.6.8.8.t.5.2.u.~ < g.g.g.g.g.g.g.g.g.g.",
"g.g.g.g.g.g.g.g.g.e e <.5.&.o.&.&.-.-.*.W 2 g.g.g.g.g.g.g.g.g.g.",
"g.g.g.g.g.g., > , X.d.6.1.L J H K J J H L J 2 > - 1 g.g.g.g.g.g.",
"g.g.g.g.g.T R Y R o.u.@.[ L L L L L L J J L b x 3 v g.g.g.g.g.g.",
"g.g.g.g.; ^ s.r.r.r.2.P L L L L L L L L L I L J L L = : g.g.g.g.",
"g.g.g.Y ^  .5.{ ' _ ` P L L F m V L J L B m F J P K b b g.g.g.g.",
"g.g.- U f.9.i.( J L L F J F G , 3 I L L n ; Z L L F L J = - g.g.",
", a / ] 0.O.) E n G I L J L L m M P J F B m H J m b J K b m ; 2 ",
"= 7 6.8.8.) P v , F L L L L L I J L I P J J J P 2 : L J I B = = ",
"= 8 0.%.( P J B Z J L L J L P L L F L I L F L I B Z L J L Z = ; ",
"; a u...L L L L L L L J L J L L L L L I L J J J L L I L J Z = = ",
"; a u.@.F L L L L J J 4 3 L J L L L L L L L c 4 F L L L J G = > ",
"> a u.@.L L F L J L J , : J J L L L L J L J 2 , Z L J L L Z = = ",
"; a u.@.L b 2 C L J J K G L J L Z ; b I L J K F L L L J J B ; ; ",
"= a u.+.H m , M L J L J L L L F B , b J L J L L J L L L F Z ; = ",
", a 9.| F L L L L L J I I L L P J J J J J L J J I L L K ; ; = ; ",
"= s <.' L L L L L H G L L L L L L L L H J L J L L L H F = = ; = ",
"g.g.; v L I J J I 4 ; L L L L L L L M > m J J J J L ; ; = - g.g.",
"g.g.- 3 Z Z G L J c 3 J L L J L L L N 2 N J L J G B ; ; ; = g.g.",
"g.g., , = = = V F I L L L L L L L J L F J J L J 2 > > < ; ; g.g.",
"g.g.- = > : ; n C C Z B C B B B C C B B B N B B : = - 5 & q g.g.",
"g.g.g.g.g.S = = > = > ; = = = ; ; = = = = = = > , 1 g.g.g.g.g.g.",
"g.g.g.g.g.g.q q * $ # % i i i i i i i i % # 9 q A 0 g.g.g.g.g.g.",
"g.g.g.g.g.g.g.g.g.X O k z z l z l k k z d . g.g.g.g.g.g.g.g.g.g.",
"g.g.g.g.g.g.g.g.g.O . k l l z z z l z z u o g.g.g.g.g.g.g.g.g.g.",
"g.g.g.g.g.g.g.g.g.o O k l l z l z z k l u o g.g.g.g.g.g.g.g.g.g.",
"g.g.g.g.g.g.g.g.+ d g l l l z l k l l l h f y O g.g.g.g.g.g.g.g.",
"g.g.g.g.g.g.g.g.X j l l l k l z l z l l z k @   g.g.g.g.g.g.g.g.",
"g.g.g.g.g.g.g.g.g.y t t t t t y y y y @ t r g.g.g.g.g.g.g.g.g.g.",
"g.g.g.g.g.g.g.g.g.      o O X X O     O   X g.g.g.g.g.g.g.g.g.g."
};
